<svg xmlns="http://www.w3.org/2000/svg" viewBox="0 0 1000 1113" width="1000" height="1113">
<g transform="translate(-137.0 -68.0) scale(1.4)">
<g fill="#15151b" stroke="#15151b" stroke-width="24" stroke-linejoin="round"><rect x="712.0" y="524.0" width="40.0" height="168.0" rx="14"/><rect x="318.0" y="684.0" width="133.0" height="84.0" rx="0"/><rect x="312.0" y="755.0" width="128.0" height="59.0" rx="5"/><rect x="459.0" y="684.0" width="133.0" height="84.0" rx="0"/><rect x="470.0" y="755.0" width="128.0" height="59.0" rx="5"/><rect x="310.0" y="462.0" width="290.0" height="230.0" rx="4"/><rect x="349.0" y="488.0" width="212.0" height="144.0" rx="3"/><rect x="305.0" y="632.0" width="300.0" height="60.0" rx="4"/><polygon points="455.0,633.0 482.0,660.0 455.0,687.0 428.0,660.0"/><rect x="186.0" y="512.0" width="132.0" height="100.0" rx="0"/><rect x="190.0" y="600.0" width="128.0" height="100.0" rx="5"/><rect x="170.0" y="428.0" width="152.0" height="94.0" rx="6"/><rect x="592.0" y="512.0" width="132.0" height="100.0" rx="0"/><rect x="592.0" y="600.0" width="128.0" height="100.0" rx="5"/><rect x="588.0" y="428.0" width="152.0" height="94.0" rx="6"/><path d="M 244 468 Q 176 584 244 700 L 258 694 Q 204 584 258 474 Z"/><rect x="200.0" y="566.0" width="30.0" height="38.0" rx="4"/><rect x="430.0" y="76.0" width="50.0" height="76.0" rx="5"/><rect x="296.0" y="256.0" width="30.0" height="124.0" rx="3"/><rect x="584.0" y="256.0" width="30.0" height="124.0" rx="3"/><rect x="320.0" y="246.0" width="270.0" height="224.0" rx="5"/><rect x="310.0" y="142.0" width="290.0" height="90.0" rx="5"/><rect x="300.0" y="228.0" width="310.0" height="24.0" rx="4"/></g>
<rect x="712.0" y="524.0" width="40.0" height="168.0" rx="14" fill="#6E340B"/><clipPath id="c0"><rect x="712.0" y="524.0" width="40.0" height="168.0" rx="14"/></clipPath><g clip-path="url(#c0)"><rect x="712.0" y="524.0" width="14.0" height="168.0" rx="0" fill="#8E4A16"/></g><rect x="712.0" y="524.0" width="40.0" height="168.0" rx="14" fill="none" stroke="#15151b" stroke-width="5" stroke-linejoin="round"/><rect x="318.0" y="684.0" width="133.0" height="84.0" rx="0" fill="#5C2A0C"/><clipPath id="c1"><rect x="318.0" y="684.0" width="133.0" height="84.0" rx="0"/></clipPath><g clip-path="url(#c1)"><rect x="335.0" y="700.0" width="80.0" height="46.0" rx="3" fill="#8B4A1A"/></g><rect x="318.0" y="684.0" width="133.0" height="84.0" rx="0" fill="none" stroke="#15151b" stroke-width="5" stroke-linejoin="round"/><rect x="312.0" y="755.0" width="128.0" height="59.0" rx="5" fill="#C0600E"/><clipPath id="c2"><rect x="312.0" y="755.0" width="128.0" height="59.0" rx="5"/></clipPath><g clip-path="url(#c2)"><rect x="300.0" y="792.0" width="150.0" height="28.0" rx="0" fill="#9C7A10"/><rect x="300.0" y="755.0" width="150.0" height="11.0" rx="0" fill="#D67A26"/></g><rect x="312.0" y="755.0" width="128.0" height="59.0" rx="5" fill="none" stroke="#15151b" stroke-width="5" stroke-linejoin="round"/><rect x="459.0" y="684.0" width="133.0" height="84.0" rx="0" fill="#5C2A0C"/><clipPath id="c3"><rect x="459.0" y="684.0" width="133.0" height="84.0" rx="0"/></clipPath><g clip-path="url(#c3)"><rect x="495.0" y="700.0" width="80.0" height="46.0" rx="3" fill="#8B4A1A"/></g><rect x="459.0" y="684.0" width="133.0" height="84.0" rx="0" fill="none" stroke="#15151b" stroke-width="5" stroke-linejoin="round"/><rect x="470.0" y="755.0" width="128.0" height="59.0" rx="5" fill="#C0600E"/><clipPath id="c4"><rect x="470.0" y="755.0" width="128.0" height="59.0" rx="5"/></clipPath><g clip-path="url(#c4)"><rect x="460.0" y="792.0" width="150.0" height="28.0" rx="0" fill="#9C7A10"/><rect x="460.0" y="755.0" width="150.0" height="11.0" rx="0" fill="#D67A26"/></g><rect x="470.0" y="755.0" width="128.0" height="59.0" rx="5" fill="none" stroke="#15151b" stroke-width="5" stroke-linejoin="round"/><rect x="310.0" y="462.0" width="290.0" height="230.0" rx="4" fill="#8B4A12"/><clipPath id="c5"><rect x="310.0" y="462.0" width="290.0" height="230.0" rx="4"/></clipPath><g clip-path="url(#c5)"><rect x="580.0" y="450.0" width="30.0" height="250.0" rx="0" fill="#6E380B"/></g><rect x="310.0" y="462.0" width="290.0" height="230.0" rx="4" fill="none" stroke="#15151b" stroke-width="5" stroke-linejoin="round"/><rect x="349.0" y="488.0" width="212.0" height="144.0" rx="3" fill="#FFBE12"/><clipPath id="c6"><rect x="349.0" y="488.0" width="212.0" height="144.0" rx="3"/></clipPath><g clip-path="url(#c6)"><rect x="340.0" y="488.0" width="230.0" height="14.0" rx="0" fill="#FFDD5E"/><rect x="545.0" y="480.0" width="25.0" height="160.0" rx="0" fill="#E09A00"/><rect x="-16.0" y="-6.0" width="32.0" height="12.0" rx="3" transform="translate(418 544) rotate(28)" fill="#8B4A12"/></g><rect x="349.0" y="488.0" width="212.0" height="144.0" rx="3" fill="none" stroke="#15151b" stroke-width="5" stroke-linejoin="round"/><rect x="305.0" y="632.0" width="300.0" height="60.0" rx="4" fill="#6E340B"/><clipPath id="c7"><rect x="305.0" y="632.0" width="300.0" height="60.0" rx="4"/></clipPath><g clip-path="url(#c7)"><rect x="300.0" y="632.0" width="310.0" height="12.0" rx="0" fill="#8A4412"/></g><rect x="305.0" y="632.0" width="300.0" height="60.0" rx="4" fill="none" stroke="#15151b" stroke-width="5" stroke-linejoin="round"/><polygon points="455.0,633.0 482.0,660.0 455.0,687.0 428.0,660.0" fill="#FFBE12"/><clipPath id="c8"><polygon points="455.0,633.0 482.0,660.0 455.0,687.0 428.0,660.0"/></clipPath><g clip-path="url(#c8)"><polygon points="455.0,633.0 455.0,660.0 428.0,660.0" fill="#FFDD5E"/><polygon points="455.0,660.0 482.0,660.0 455.0,687.0" fill="#E09A00"/></g><polygon points="455.0,633.0 482.0,660.0 455.0,687.0 428.0,660.0" fill="none" stroke="#15151b" stroke-width="5" stroke-linejoin="round"/><rect x="186.0" y="512.0" width="132.0" height="100.0" rx="0" fill="#8B4A12"/><clipPath id="c9"><rect x="186.0" y="512.0" width="132.0" height="100.0" rx="0"/></clipPath><g clip-path="url(#c9)"><rect x="290.0" y="500.0" width="40.0" height="120.0" rx="0" fill="#6E380B"/></g><rect x="186.0" y="512.0" width="132.0" height="100.0" rx="0" fill="none" stroke="#15151b" stroke-width="5" stroke-linejoin="round"/><rect x="190.0" y="600.0" width="128.0" height="100.0" rx="5" fill="#C8620C"/><clipPath id="c10"><rect x="190.0" y="600.0" width="128.0" height="100.0" rx="5"/></clipPath><g clip-path="url(#c10)"><rect x="180.0" y="600.0" width="150.0" height="16.0" rx="0" fill="#DB7B26"/></g><rect x="190.0" y="600.0" width="128.0" height="100.0" rx="5" fill="none" stroke="#15151b" stroke-width="5" stroke-linejoin="round"/><rect x="170.0" y="428.0" width="152.0" height="94.0" rx="6" fill="#FFBE12"/><clipPath id="c11"><rect x="170.0" y="428.0" width="152.0" height="94.0" rx="6"/></clipPath><g clip-path="url(#c11)"><rect x="160.0" y="428.0" width="170.0" height="28.0" rx="0" fill="#FFDD5E"/><rect x="160.0" y="504.0" width="170.0" height="26.0" rx="0" fill="#E09A00"/></g><rect x="170.0" y="428.0" width="152.0" height="94.0" rx="6" fill="none" stroke="#15151b" stroke-width="5" stroke-linejoin="round"/><rect x="592.0" y="512.0" width="132.0" height="100.0" rx="0" fill="#8B4A12"/><clipPath id="c12"><rect x="592.0" y="512.0" width="132.0" height="100.0" rx="0"/></clipPath><g clip-path="url(#c12)"><rect x="580.0" y="500.0" width="40.0" height="120.0" rx="0" fill="#6E380B"/></g><rect x="592.0" y="512.0" width="132.0" height="100.0" rx="0" fill="none" stroke="#15151b" stroke-width="5" stroke-linejoin="round"/><rect x="592.0" y="600.0" width="128.0" height="100.0" rx="5" fill="#C8620C"/><clipPath id="c13"><rect x="592.0" y="600.0" width="128.0" height="100.0" rx="5"/></clipPath><g clip-path="url(#c13)"><rect x="580.0" y="600.0" width="150.0" height="16.0" rx="0" fill="#DB7B26"/></g><rect x="592.0" y="600.0" width="128.0" height="100.0" rx="5" fill="none" stroke="#15151b" stroke-width="5" stroke-linejoin="round"/><rect x="588.0" y="428.0" width="152.0" height="94.0" rx="6" fill="#FFBE12"/><clipPath id="c14"><rect x="588.0" y="428.0" width="152.0" height="94.0" rx="6"/></clipPath><g clip-path="url(#c14)"><rect x="580.0" y="428.0" width="170.0" height="28.0" rx="0" fill="#FFDD5E"/><rect x="580.0" y="504.0" width="170.0" height="26.0" rx="0" fill="#E09A00"/></g><rect x="588.0" y="428.0" width="152.0" height="94.0" rx="6" fill="none" stroke="#15151b" stroke-width="5" stroke-linejoin="round"/><path d="M 244 468 Q 176 584 244 700 L 258 694 Q 204 584 258 474 Z" fill="#FFD21F"/><clipPath id="c15"><path d="M 244 468 Q 176 584 244 700 L 258 694 Q 204 584 258 474 Z"/></clipPath><g clip-path="url(#c15)"><path d="M 244 468 Q 176 584 244 700 L 222 700 Q 190 584 222 468 Z" fill="#E6A800"/></g><path d="M 244 468 Q 176 584 244 700 L 258 694 Q 204 584 258 474 Z" fill="none" stroke="#15151b" stroke-width="5" stroke-linejoin="round"/><rect x="250.0" y="474.0" width="4.0" height="220.0" rx="0" fill="#F3E6D2"/><rect x="200.0" y="566.0" width="30.0" height="38.0" rx="4" fill="#8B4A12"/><rect x="200.0" y="566.0" width="30.0" height="38.0" rx="4" fill="none" stroke="#15151b" stroke-width="5" stroke-linejoin="round"/><rect x="430.0" y="76.0" width="50.0" height="76.0" rx="5" fill="#FFBE12"/><clipPath id="c18"><rect x="430.0" y="76.0" width="50.0" height="76.0" rx="5"/></clipPath><g clip-path="url(#c18)"><rect x="462.0" y="70.0" width="28.0" height="90.0" rx="0" fill="#E09A00"/><rect x="420.0" y="76.0" width="70.0" height="14.0" rx="0" fill="#FFDD5E"/></g><rect x="430.0" y="76.0" width="50.0" height="76.0" rx="5" fill="none" stroke="#15151b" stroke-width="5" stroke-linejoin="round"/><rect x="296.0" y="256.0" width="30.0" height="124.0" rx="3" fill="#8B4A12"/><rect x="296.0" y="256.0" width="30.0" height="124.0" rx="3" fill="none" stroke="#15151b" stroke-width="5" stroke-linejoin="round"/><rect x="584.0" y="256.0" width="30.0" height="124.0" rx="3" fill="#8B4A12"/><rect x="584.0" y="256.0" width="30.0" height="124.0" rx="3" fill="none" stroke="#15151b" stroke-width="5" stroke-linejoin="round"/><rect x="320.0" y="246.0" width="270.0" height="224.0" rx="5" fill="#FCDDBA"/><clipPath id="c21"><rect x="320.0" y="246.0" width="270.0" height="224.0" rx="5"/></clipPath><g clip-path="url(#c21)"><rect x="572.0" y="240.0" width="28.0" height="240.0" rx="0" fill="#EFC79E"/></g><rect x="320.0" y="246.0" width="270.0" height="224.0" rx="5" fill="none" stroke="#15151b" stroke-width="5" stroke-linejoin="round"/><rect x="310.0" y="142.0" width="290.0" height="90.0" rx="5" fill="#FFBE12"/><clipPath id="c22"><rect x="310.0" y="142.0" width="290.0" height="90.0" rx="5"/></clipPath><g clip-path="url(#c22)"><rect x="300.0" y="142.0" width="310.0" height="18.0" rx="0" fill="#FFDD5E"/><rect x="576.0" y="140.0" width="34.0" height="100.0" rx="0" fill="#E09A00"/></g><rect x="310.0" y="142.0" width="290.0" height="90.0" rx="5" fill="none" stroke="#15151b" stroke-width="5" stroke-linejoin="round"/><rect x="300.0" y="228.0" width="310.0" height="24.0" rx="4" fill="#8B4A12"/><rect x="300.0" y="228.0" width="310.0" height="24.0" rx="4" fill="none" stroke="#15151b" stroke-width="5" stroke-linejoin="round"/><polygon points="364.0,274.0 432.0,283.0 432.0,297.0 364.0,289.0" fill="#8B2A0A"/><polygon points="546.0,274.0 478.0,283.0 478.0,297.0 546.0,289.0" fill="#8B2A0A"/><rect x="375.0" y="296.0" width="41.0" height="66.0" rx="3" fill="#0A0A20"/><clipPath id="c26"><rect x="375.0" y="296.0" width="41.0" height="66.0" rx="3"/></clipPath><g clip-path="url(#c26)"><rect x="381.0" y="305.0" width="12.0" height="19.0" rx="0" fill="#FFFFFF"/></g><rect x="494.0" y="296.0" width="41.0" height="66.0" rx="3" fill="#0A0A20"/><clipPath id="c27"><rect x="494.0" y="296.0" width="41.0" height="66.0" rx="3"/></clipPath><g clip-path="url(#c27)"><rect x="500.0" y="305.0" width="12.0" height="19.0" rx="0" fill="#FFFFFF"/></g><rect x="434.0" y="402.0" width="42.0" height="12.0" rx="2" fill="#8B1A0A"/>
</g>
</svg>
