<svg xmlns="http://www.w3.org/2000/svg" viewBox="0 0 948 1097" width="948" height="1097">
<g transform="translate(-14.6 -34.5) scale(1.24)">
<g fill="#15151b" stroke="#15151b" stroke-width="24" stroke-linejoin="round"><rect x="290.0" y="722.0" width="142.0" height="90.0" rx="0"/><rect x="282.0" y="800.0" width="150.0" height="84.0" rx="4"/><rect x="438.0" y="722.0" width="142.0" height="90.0" rx="0"/><rect x="438.0" y="800.0" width="150.0" height="84.0" rx="4"/><rect x="262.0" y="462.0" width="346.0" height="262.0" rx="4"/><rect x="272.0" y="678.0" width="74.0" height="66.0" rx="4"/><rect x="142.0" y="438.0" width="120.0" height="188.0" rx="5"/><rect x="138.0" y="612.0" width="130.0" height="118.0" rx="5"/><rect x="608.0" y="438.0" width="120.0" height="188.0" rx="5"/><rect x="602.0" y="612.0" width="130.0" height="118.0" rx="5"/><rect x="132.0" y="588.0" width="112.0" height="102.0" rx="5"/><rect x="146.0" y="600.0" width="78.0" height="70.0" rx="3"/><polygon points="40.0,572.0 126.0,540.0 256.0,566.0 172.0,598.0"/><rect x="280.0" y="206.0" width="310.0" height="264.0" rx="5"/><rect x="410.0" y="60.0" width="56.0" height="36.0" rx="4"/><rect x="262.0" y="90.0" width="346.0" height="90.0" rx="6"/><rect x="242.0" y="172.0" width="386.0" height="40.0" rx="5"/></g>
<rect x="290.0" y="722.0" width="142.0" height="90.0" rx="0" fill="#3A80D0"/><clipPath id="c0"><rect x="290.0" y="722.0" width="142.0" height="90.0" rx="0"/></clipPath><g clip-path="url(#c0)"><rect x="320.0" y="748.0" width="70.0" height="44.0" rx="3" fill="#F4EEE4"/></g><rect x="290.0" y="722.0" width="142.0" height="90.0" rx="0" fill="none" stroke="#15151b" stroke-width="5" stroke-linejoin="round"/><rect x="282.0" y="800.0" width="150.0" height="84.0" rx="4" fill="#8A4410"/><clipPath id="c1"><rect x="282.0" y="800.0" width="150.0" height="84.0" rx="4"/></clipPath><g clip-path="url(#c1)"><rect x="276.0" y="800.0" width="162.0" height="14.0" rx="0" fill="#A05818"/></g><rect x="282.0" y="800.0" width="150.0" height="84.0" rx="4" fill="none" stroke="#15151b" stroke-width="5" stroke-linejoin="round"/><rect x="438.0" y="722.0" width="142.0" height="90.0" rx="0" fill="#3A80D0"/><clipPath id="c2"><rect x="438.0" y="722.0" width="142.0" height="90.0" rx="0"/></clipPath><g clip-path="url(#c2)"><rect x="480.0" y="748.0" width="70.0" height="44.0" rx="3" fill="#F4EEE4"/></g><rect x="438.0" y="722.0" width="142.0" height="90.0" rx="0" fill="none" stroke="#15151b" stroke-width="5" stroke-linejoin="round"/><rect x="438.0" y="800.0" width="150.0" height="84.0" rx="4" fill="#8A4410"/><clipPath id="c3"><rect x="438.0" y="800.0" width="150.0" height="84.0" rx="4"/></clipPath><g clip-path="url(#c3)"><rect x="432.0" y="800.0" width="162.0" height="14.0" rx="0" fill="#A05818"/></g><rect x="438.0" y="800.0" width="150.0" height="84.0" rx="4" fill="none" stroke="#15151b" stroke-width="5" stroke-linejoin="round"/><rect x="262.0" y="462.0" width="346.0" height="262.0" rx="4" fill="#F8F0E4"/><clipPath id="c4"><rect x="262.0" y="462.0" width="346.0" height="262.0" rx="4"/></clipPath><g clip-path="url(#c4)"><rect x="586.0" y="455.0" width="29.0" height="275.0" rx="0" fill="#E8DCCB"/><rect x="398.0" y="666.0" width="74.0" height="58.0" rx="0" fill="#B85A10"/></g><rect x="262.0" y="462.0" width="346.0" height="262.0" rx="4" fill="none" stroke="#15151b" stroke-width="5" stroke-linejoin="round"/><rect x="262.0" y="470.0" width="140.0" height="246.0" rx="4" fill="#FF8C00"/><clipPath id="c5"><rect x="262.0" y="470.0" width="140.0" height="246.0" rx="4"/></clipPath><g clip-path="url(#c5)"><rect x="378.0" y="465.0" width="29.0" height="255.0" rx="0" fill="#E87800"/><rect x="257.0" y="546.0" width="150.0" height="20.0" rx="0" fill="#C0C0C8"/><rect x="257.0" y="616.0" width="150.0" height="20.0" rx="0" fill="#C0C0C8"/></g><rect x="262.0" y="470.0" width="140.0" height="246.0" rx="4" fill="none" stroke="#15151b" stroke-width="4" stroke-linejoin="round"/><rect x="468.0" y="470.0" width="144.0" height="246.0" rx="4" fill="#FF8C00"/><clipPath id="c6"><rect x="468.0" y="470.0" width="144.0" height="246.0" rx="4"/></clipPath><g clip-path="url(#c6)"><rect x="588.0" y="465.0" width="29.0" height="255.0" rx="0" fill="#E87800"/><rect x="463.0" y="546.0" width="154.0" height="20.0" rx="0" fill="#C0C0C8"/><rect x="463.0" y="616.0" width="154.0" height="20.0" rx="0" fill="#C0C0C8"/></g><rect x="468.0" y="470.0" width="144.0" height="246.0" rx="4" fill="none" stroke="#15151b" stroke-width="4" stroke-linejoin="round"/><rect x="272.0" y="678.0" width="74.0" height="66.0" rx="4" fill="#FFD800"/><clipPath id="c7"><rect x="272.0" y="678.0" width="74.0" height="66.0" rx="4"/></clipPath><g clip-path="url(#c7)"><rect x="325.0" y="675.0" width="25.0" height="73.0" rx="0" fill="#E8B400"/></g><rect x="272.0" y="678.0" width="74.0" height="66.0" rx="4" fill="none" stroke="#15151b" stroke-width="5" stroke-linejoin="round"/><rect x="142.0" y="438.0" width="120.0" height="188.0" rx="5" fill="#F8F0E4"/><clipPath id="c8"><rect x="142.0" y="438.0" width="120.0" height="188.0" rx="5"/></clipPath><g clip-path="url(#c8)"><rect x="135.0" y="438.0" width="133.0" height="20.0" rx="0" fill="#FFFFFF"/><rect x="242.0" y="432.0" width="26.0" height="200.0" rx="0" fill="#E8DCCB"/></g><rect x="142.0" y="438.0" width="120.0" height="188.0" rx="5" fill="none" stroke="#15151b" stroke-width="5" stroke-linejoin="round"/><rect x="138.0" y="612.0" width="130.0" height="118.0" rx="5" fill="#FFD800"/><clipPath id="c9"><rect x="138.0" y="612.0" width="130.0" height="118.0" rx="5"/></clipPath><g clip-path="url(#c9)"><rect x="132.0" y="612.0" width="142.0" height="14.0" rx="0" fill="#FFE870"/><rect x="246.0" y="608.0" width="28.0" height="128.0" rx="0" fill="#E8B400"/></g><rect x="138.0" y="612.0" width="130.0" height="118.0" rx="5" fill="none" stroke="#15151b" stroke-width="5" stroke-linejoin="round"/><rect x="608.0" y="438.0" width="120.0" height="188.0" rx="5" fill="#F8F0E4"/><clipPath id="c10"><rect x="608.0" y="438.0" width="120.0" height="188.0" rx="5"/></clipPath><g clip-path="url(#c10)"><rect x="602.0" y="438.0" width="133.0" height="20.0" rx="0" fill="#FFFFFF"/><rect x="602.0" y="432.0" width="26.0" height="200.0" rx="0" fill="#E8DCCB"/></g><rect x="608.0" y="438.0" width="120.0" height="188.0" rx="5" fill="none" stroke="#15151b" stroke-width="5" stroke-linejoin="round"/><rect x="602.0" y="612.0" width="130.0" height="118.0" rx="5" fill="#FFD800"/><clipPath id="c11"><rect x="602.0" y="612.0" width="130.0" height="118.0" rx="5"/></clipPath><g clip-path="url(#c11)"><rect x="596.0" y="612.0" width="142.0" height="14.0" rx="0" fill="#FFE870"/><rect x="596.0" y="608.0" width="28.0" height="128.0" rx="0" fill="#E8B400"/></g><rect x="602.0" y="612.0" width="130.0" height="118.0" rx="5" fill="none" stroke="#15151b" stroke-width="5" stroke-linejoin="round"/><rect x="132.0" y="588.0" width="112.0" height="102.0" rx="5" fill="#FFE000"/><clipPath id="c12"><rect x="132.0" y="588.0" width="112.0" height="102.0" rx="5"/></clipPath><g clip-path="url(#c12)"><rect x="132.0" y="588.0" width="112.0" height="16.0" rx="0" fill="#FFF080"/><rect x="218.0" y="584.0" width="30.0" height="110.0" rx="0" fill="#E8B400"/></g><rect x="132.0" y="588.0" width="112.0" height="102.0" rx="5" fill="none" stroke="#15151b" stroke-width="5" stroke-linejoin="round"/><rect x="146.0" y="600.0" width="78.0" height="70.0" rx="3" fill="#5A5E70"/><rect x="146.0" y="600.0" width="78.0" height="70.0" rx="3" fill="none" stroke="#15151b" stroke-width="5" stroke-linejoin="round"/><polygon points="40.0,572.0 126.0,540.0 256.0,566.0 172.0,598.0" fill="#A0A4B8"/><clipPath id="c14"><polygon points="40.0,572.0 126.0,540.0 256.0,566.0 172.0,598.0"/></clipPath><g clip-path="url(#c14)"><polygon points="40.0,572.0 172.0,598.0 256.0,566.0 256.0,580.0 172.0,612.0 40.0,586.0" fill="#80849A"/></g><polygon points="40.0,572.0 126.0,540.0 256.0,566.0 172.0,598.0" fill="none" stroke="#15151b" stroke-width="5" stroke-linejoin="round"/><rect x="-6.0" y="-47.1" width="12.0" height="47.1" rx="3" transform="translate(170 606) rotate(-12.3)" fill="#6A7084"/><rect x="-6.0" y="-47.1" width="12.0" height="47.1" rx="3" transform="translate(170 606) rotate(-12.3)" fill="none" stroke="#15151b" stroke-width="3" stroke-linejoin="round"/><rect x="280.0" y="206.0" width="310.0" height="264.0" rx="5" fill="#F8D4A8"/><clipPath id="c16"><rect x="280.0" y="206.0" width="310.0" height="264.0" rx="5"/></clipPath><g clip-path="url(#c16)"><rect x="568.0" y="200.0" width="30.0" height="274.0" rx="0" fill="#ECC094"/></g><rect x="280.0" y="206.0" width="310.0" height="264.0" rx="5" fill="none" stroke="#15151b" stroke-width="5" stroke-linejoin="round"/><rect x="410.0" y="60.0" width="56.0" height="36.0" rx="4" fill="#F0E6D8"/><rect x="410.0" y="60.0" width="56.0" height="36.0" rx="4" fill="none" stroke="#15151b" stroke-width="5" stroke-linejoin="round"/><rect x="262.0" y="90.0" width="346.0" height="90.0" rx="6" fill="#F8F0E4"/><clipPath id="c18"><rect x="262.0" y="90.0" width="346.0" height="90.0" rx="6"/></clipPath><g clip-path="url(#c18)"><rect x="255.0" y="90.0" width="360.0" height="14.0" rx="0" fill="#FFFFFF"/><rect x="580.0" y="85.0" width="35.0" height="100.0" rx="0" fill="#E8DCCB"/><rect x="302.0" y="110.0" width="86.0" height="52.0" rx="2" fill="#FF8C00"/></g><rect x="262.0" y="90.0" width="346.0" height="90.0" rx="6" fill="none" stroke="#15151b" stroke-width="5" stroke-linejoin="round"/><rect x="242.0" y="172.0" width="386.0" height="40.0" rx="5" fill="#F4ECE0"/><clipPath id="c19"><rect x="242.0" y="172.0" width="386.0" height="40.0" rx="5"/></clipPath><g clip-path="url(#c19)"><rect x="236.0" y="196.0" width="398.0" height="20.0" rx="0" fill="#E0D4C2"/></g><rect x="242.0" y="172.0" width="386.0" height="40.0" rx="5" fill="none" stroke="#15151b" stroke-width="5" stroke-linejoin="round"/><rect x="268.0" y="240.0" width="16.0" height="60.0" rx="3" fill="#FFD000"/><rect x="268.0" y="240.0" width="16.0" height="60.0" rx="3" fill="none" stroke="#15151b" stroke-width="3" stroke-linejoin="round"/><rect x="336.0" y="248.0" width="64.0" height="18.0" rx="4" fill="#8A4410"/><rect x="470.0" y="248.0" width="64.0" height="18.0" rx="4" fill="#8A4410"/><rect x="344.0" y="272.0" width="48.0" height="76.0" rx="3" fill="#05051A"/><clipPath id="c23"><rect x="344.0" y="272.0" width="48.0" height="76.0" rx="3"/></clipPath><g clip-path="url(#c23)"><rect x="352.0" y="286.0" width="14.0" height="20.0" rx="2" fill="#FFFFFF"/></g><rect x="478.0" y="272.0" width="48.0" height="76.0" rx="3" fill="#05051A"/><clipPath id="c24"><rect x="478.0" y="272.0" width="48.0" height="76.0" rx="3"/></clipPath><g clip-path="url(#c24)"><rect x="486.0" y="286.0" width="14.0" height="20.0" rx="2" fill="#FFFFFF"/></g><polygon points="390.0,376.0 406.0,376.0 406.0,390.0 470.0,390.0 470.0,376.0 486.0,376.0 486.0,404.0 390.0,404.0" fill="#8A2A10"/><rect x="512.0" y="362.0" width="50.0" height="24.0" rx="3" fill="#FAF2EC"/>
</g>
</svg>
