<svg xmlns="http://www.w3.org/2000/svg" viewBox="0 0 1250 1250" width="1250" height="1250">
<g transform="translate(50 92) scale(0.92)">
<g fill="#15151b" stroke="#15151b" stroke-width="34" stroke-linejoin="round"><g transform="translate(632 300) rotate(-14)"><rect x="-21.0" y="-300" width="42" height="300" rx="9"/></g><g transform="translate(632 300) rotate(14)"><rect x="-21.0" y="-300" width="42" height="300" rx="9"/></g><g transform="translate(632 300) rotate(-44)"><rect x="-27.0" y="-318" width="54" height="318" rx="9"/></g><g transform="translate(632 300) rotate(44)"><rect x="-27.0" y="-318" width="54" height="318" rx="9"/></g><g transform="translate(632 300) rotate(-29)"><rect x="-28.0" y="-312" width="56" height="312" rx="9"/></g><g transform="translate(632 300) rotate(29)"><rect x="-28.0" y="-312" width="56" height="312" rx="9"/></g><g transform="translate(632 300) rotate(0)"><rect x="-27.0" y="-342" width="54" height="342" rx="9"/></g><polygon points="364,160 308,172 328,196 296,216 364,240"/><polygon points="900,160 956,172 936,196 968,216 900,240"/><g transform="translate(318 918) rotate(14)"><rect x="-104" y="176" width="40" height="30" rx="4"/></g><g transform="translate(318 918) rotate(14)"><rect x="-104" y="224" width="40" height="30" rx="4"/></g><g transform="translate(318 918) rotate(14)"><rect x="-70" y="116" width="32" height="28" rx="4"/></g><g transform="translate(318 918) rotate(14)"><rect x="40" y="238" width="34" height="34" rx="4"/></g><g transform="translate(318 918) rotate(14)"><polygon points="-22,-120 22,-120 22,92 72,160 72,262 -72,262 -72,160 -22,92"/></g><rect x="425" y="985" width="180" height="60" rx="0"/><rect x="659" y="985" width="180" height="60" rx="0"/><rect x="410" y="1030" width="208" height="156" rx="8"/><rect x="410" y="1030" width="208" height="56" rx="8"/><rect x="646" y="1030" width="208" height="156" rx="8"/><rect x="646" y="1030" width="208" height="56" rx="8"/><rect x="398" y="628" width="468" height="256" rx="4"/><polygon points="404,940 860,940 860.0,1016 822.0,990 784.0,1016 746.0,990 708.0,1016 670.0,990 632.0,1016 594.0,990 556.0,1016 518.0,990 480.0,1016 442.0,990 404.0,1016"/><rect x="238" y="610" width="160" height="356" rx="8"/><rect x="230" y="800" width="176" height="48" rx="5"/><rect x="866" y="640" width="162" height="326" rx="8"/><rect x="858" y="842" width="178" height="50" rx="5"/><polygon points="856,546 1044,574 1090,634 1086,770 1062,752 1040,776 1016,754 992,774 968,750 944,768 920,746 896,762 872,742 852,754"/><rect x="392" y="866" width="480" height="88" rx="5"/><rect x="420" y="896" width="92" height="92" rx="8"/><rect x="594" y="854" width="76" height="108" rx="14"/><rect x="405" y="290" width="454" height="352" rx="8"/><rect x="380" y="238" width="504" height="82" rx="5"/><rect x="358" y="150" width="548" height="98" rx="8"/><polygon points="632,232 678,278 632,324 586,278"/></g>
<g transform="translate(632 300) rotate(-14)"><rect x="-21.0" y="-300" width="42" height="300" rx="9" fill="#23232c"/><clipPath id="c1"><rect x="-21.0" y="-300" width="42" height="300" rx="9"/></clipPath><g clip-path="url(#c1)"><rect x="6" y="-400" width="30" height="400" rx="0" fill="#34343f"/></g><rect x="-21.0" y="-300" width="42" height="300" rx="9" fill="none" stroke="#15151b" stroke-width="7" stroke-linejoin="round"/></g><g transform="translate(632 300) rotate(14)"><rect x="-21.0" y="-300" width="42" height="300" rx="9" fill="#23232c"/><clipPath id="c2"><rect x="-21.0" y="-300" width="42" height="300" rx="9"/></clipPath><g clip-path="url(#c2)"><rect x="6" y="-400" width="30" height="400" rx="0" fill="#34343f"/></g><rect x="-21.0" y="-300" width="42" height="300" rx="9" fill="none" stroke="#15151b" stroke-width="7" stroke-linejoin="round"/></g><g transform="translate(632 300) rotate(-44)"><rect x="-27.0" y="-318" width="54" height="318" rx="9" fill="#E8272C"/><clipPath id="c3"><rect x="-27.0" y="-318" width="54" height="318" rx="9"/></clipPath><g clip-path="url(#c3)"><rect x="9" y="-400" width="30" height="400" rx="0" fill="#B51D22"/></g><rect x="-27.0" y="-318" width="54" height="318" rx="9" fill="none" stroke="#15151b" stroke-width="7" stroke-linejoin="round"/></g><g transform="translate(632 300) rotate(44)"><rect x="-27.0" y="-318" width="54" height="318" rx="9" fill="#E8272C"/><clipPath id="c4"><rect x="-27.0" y="-318" width="54" height="318" rx="9"/></clipPath><g clip-path="url(#c4)"><rect x="9" y="-400" width="30" height="400" rx="0" fill="#B51D22"/></g><rect x="-27.0" y="-318" width="54" height="318" rx="9" fill="none" stroke="#15151b" stroke-width="7" stroke-linejoin="round"/></g><g transform="translate(632 300) rotate(-29)"><rect x="-28.0" y="-312" width="56" height="312" rx="9" fill="#FFD426"/><clipPath id="c5"><rect x="-28.0" y="-312" width="56" height="312" rx="9"/></clipPath><g clip-path="url(#c5)"><rect x="10" y="-400" width="30" height="400" rx="0" fill="#E2A700"/><rect x="-13" y="-272" width="26" height="80" rx="3" fill="#23232c"/></g><rect x="-28.0" y="-312" width="56" height="312" rx="9" fill="none" stroke="#15151b" stroke-width="7" stroke-linejoin="round"/></g><g transform="translate(632 300) rotate(29)"><rect x="-28.0" y="-312" width="56" height="312" rx="9" fill="#FFD426"/><clipPath id="c6"><rect x="-28.0" y="-312" width="56" height="312" rx="9"/></clipPath><g clip-path="url(#c6)"><rect x="10" y="-400" width="30" height="400" rx="0" fill="#E2A700"/><rect x="-13" y="-272" width="26" height="80" rx="3" fill="#23232c"/></g><rect x="-28.0" y="-312" width="56" height="312" rx="9" fill="none" stroke="#15151b" stroke-width="7" stroke-linejoin="round"/></g><g transform="translate(632 300) rotate(0)"><rect x="-27.0" y="-342" width="54" height="342" rx="9" fill="#F7F1E2"/><clipPath id="c7"><rect x="-27.0" y="-342" width="54" height="342" rx="9"/></clipPath><g clip-path="url(#c7)"><rect x="9" y="-400" width="30" height="400" rx="0" fill="#DCD1B8"/><rect x="-30" y="-400" width="60" height="108" rx="0" fill="#23232c"/></g><rect x="-27.0" y="-342" width="54" height="342" rx="9" fill="none" stroke="#15151b" stroke-width="7" stroke-linejoin="round"/></g><polygon points="364,160 308,172 328,196 296,216 364,240" fill="#F7F1E2"/><clipPath id="c8"><polygon points="364,160 308,172 328,196 296,216 364,240"/></clipPath><g clip-path="url(#c8)"><rect x="280" y="212" width="84" height="38" rx="0" fill="#DCD1B8"/></g><polygon points="364,160 308,172 328,196 296,216 364,240" fill="none" stroke="#15151b" stroke-width="7" stroke-linejoin="round"/><polygon points="900,160 956,172 936,196 968,216 900,240" fill="#F7F1E2"/><clipPath id="c9"><polygon points="900,160 956,172 936,196 968,216 900,240"/></clipPath><g clip-path="url(#c9)"><rect x="900" y="212" width="84" height="38" rx="0" fill="#DCD1B8"/></g><polygon points="900,160 956,172 936,196 968,216 900,240" fill="none" stroke="#15151b" stroke-width="7" stroke-linejoin="round"/><g transform="translate(318 918) rotate(14)"><rect x="-104" y="176" width="40" height="30" rx="4" fill="#8E91A7"/><clipPath id="c10"><rect x="-104" y="176" width="40" height="30" rx="4"/></clipPath><g clip-path="url(#c10)"><rect x="-104" y="192.5" width="40" height="30" rx="0" fill="#6B6E84"/></g><rect x="-104" y="176" width="40" height="30" rx="4" fill="none" stroke="#15151b" stroke-width="7" stroke-linejoin="round"/></g><g transform="translate(318 918) rotate(14)"><rect x="-104" y="224" width="40" height="30" rx="4" fill="#8E91A7"/><clipPath id="c11"><rect x="-104" y="224" width="40" height="30" rx="4"/></clipPath><g clip-path="url(#c11)"><rect x="-104" y="240.5" width="40" height="30" rx="0" fill="#6B6E84"/></g><rect x="-104" y="224" width="40" height="30" rx="4" fill="none" stroke="#15151b" stroke-width="7" stroke-linejoin="round"/></g><g transform="translate(318 918) rotate(14)"><rect x="-70" y="116" width="32" height="28" rx="4" fill="#8E91A7"/><clipPath id="c12"><rect x="-70" y="116" width="32" height="28" rx="4"/></clipPath><g clip-path="url(#c12)"><rect x="-70" y="131.4" width="32" height="28" rx="0" fill="#6B6E84"/></g><rect x="-70" y="116" width="32" height="28" rx="4" fill="none" stroke="#15151b" stroke-width="7" stroke-linejoin="round"/></g><g transform="translate(318 918) rotate(14)"><rect x="40" y="238" width="34" height="34" rx="4" fill="#8E91A7"/><clipPath id="c13"><rect x="40" y="238" width="34" height="34" rx="4"/></clipPath><g clip-path="url(#c13)"><rect x="40" y="256.7" width="34" height="34" rx="0" fill="#6B6E84"/></g><rect x="40" y="238" width="34" height="34" rx="4" fill="none" stroke="#15151b" stroke-width="7" stroke-linejoin="round"/></g><g transform="translate(318 918) rotate(14)"><polygon points="-22,-120 22,-120 22,92 72,160 72,262 -72,262 -72,160 -22,92" fill="#F7F1E2"/><clipPath id="c14"><polygon points="-22,-120 22,-120 22,92 72,160 72,262 -72,262 -72,160 -22,92"/></clipPath><g clip-path="url(#c14)"><polygon points="8,-130 40,-130 40,92 90,160 90,272 40,272 40,176 8,110" fill="#DCD1B8"/><rect x="-100" y="240" width="200" height="40" rx="0" fill="#DCD1B8"/><rect x="-44" y="186" width="30" height="7" rx="3" fill="#cfc4a8"/><rect x="-20" y="216" width="38" height="7" rx="3" fill="#cfc4a8"/></g><polygon points="-22,-120 22,-120 22,92 72,160 72,262 -72,262 -72,160 -22,92" fill="none" stroke="#15151b" stroke-width="7" stroke-linejoin="round"/></g><rect x="425" y="985" width="180" height="60" rx="0" fill="#A2481A"/><clipPath id="c15"><rect x="425" y="985" width="180" height="60" rx="0"/></clipPath><g clip-path="url(#c15)"><rect x="561" y="985" width="44" height="60" rx="0" fill="#823812"/></g><rect x="425" y="985" width="180" height="60" rx="0" fill="none" stroke="#15151b" stroke-width="7" stroke-linejoin="round"/><rect x="659" y="985" width="180" height="60" rx="0" fill="#A2481A"/><clipPath id="c16"><rect x="659" y="985" width="180" height="60" rx="0"/></clipPath><g clip-path="url(#c16)"><rect x="659" y="985" width="44" height="60" rx="0" fill="#823812"/></g><rect x="659" y="985" width="180" height="60" rx="0" fill="none" stroke="#15151b" stroke-width="7" stroke-linejoin="round"/><rect x="410" y="1030" width="208" height="156" rx="8" fill="#4A200F"/><clipPath id="c17"><rect x="410" y="1030" width="208" height="156" rx="8"/></clipPath><g clip-path="url(#c17)"><rect x="410" y="1030" width="208" height="16" rx="0" fill="#8a4a28"/></g><rect x="410" y="1030" width="208" height="156" rx="8" fill="none" stroke="#15151b" stroke-width="7" stroke-linejoin="round"/><rect x="410" y="1030" width="208" height="56" rx="8" fill="#70381B"/><clipPath id="c18"><rect x="410" y="1030" width="208" height="56" rx="8"/></clipPath><g clip-path="url(#c18)"><rect x="410" y="1030" width="208" height="14" rx="0" fill="#8a4a28"/></g><rect x="410" y="1030" width="208" height="56" rx="8" fill="none" stroke="#15151b" stroke-width="7" stroke-linejoin="round"/><rect x="646" y="1030" width="208" height="156" rx="8" fill="#4A200F"/><clipPath id="c19"><rect x="646" y="1030" width="208" height="156" rx="8"/></clipPath><g clip-path="url(#c19)"><rect x="646" y="1030" width="208" height="16" rx="0" fill="#8a4a28"/></g><rect x="646" y="1030" width="208" height="156" rx="8" fill="none" stroke="#15151b" stroke-width="7" stroke-linejoin="round"/><rect x="646" y="1030" width="208" height="56" rx="8" fill="#70381B"/><clipPath id="c20"><rect x="646" y="1030" width="208" height="56" rx="8"/></clipPath><g clip-path="url(#c20)"><rect x="646" y="1030" width="208" height="14" rx="0" fill="#8a4a28"/></g><rect x="646" y="1030" width="208" height="56" rx="8" fill="none" stroke="#15151b" stroke-width="7" stroke-linejoin="round"/><rect x="398" y="628" width="468" height="256" rx="4" fill="#B9561A"/><clipPath id="c21"><rect x="398" y="628" width="468" height="256" rx="4"/></clipPath><g clip-path="url(#c21)"><rect x="838" y="600" width="62" height="300" rx="0" fill="#984313"/><rect x="380" y="628" width="520" height="32" rx="0" fill="#984313"/><rect x="412" y="648" width="50" height="50" rx="4" fill="#5A2611"/><rect x="802" y="648" width="50" height="50" rx="4" fill="#5A2611"/></g><rect x="398" y="628" width="468" height="256" rx="4" fill="none" stroke="#15151b" stroke-width="7" stroke-linejoin="round"/><polygon points="404,940 860,940 860.0,1016 822.0,990 784.0,1016 746.0,990 708.0,1016 670.0,990 632.0,1016 594.0,990 556.0,1016 518.0,990 480.0,1016 442.0,990 404.0,1016" fill="#B9561A"/><clipPath id="c22"><polygon points="404,940 860,940 860.0,1016 822.0,990 784.0,1016 746.0,990 708.0,1016 670.0,990 632.0,1016 594.0,990 556.0,1016 518.0,990 480.0,1016 442.0,990 404.0,1016"/></clipPath><g clip-path="url(#c22)"><rect x="380" y="930" width="520" height="26" rx="0" fill="#984313"/></g><polygon points="404,940 860,940 860.0,1016 822.0,990 784.0,1016 746.0,990 708.0,1016 670.0,990 632.0,1016 594.0,990 556.0,1016 518.0,990 480.0,1016 442.0,990 404.0,1016" fill="none" stroke="#15151b" stroke-width="7" stroke-linejoin="round"/><rect x="238" y="610" width="160" height="356" rx="8" fill="#F3AE6E"/><clipPath id="c23"><rect x="238" y="610" width="160" height="356" rx="8"/></clipPath><g clip-path="url(#c23)"><rect x="230" y="600" width="180" height="46" rx="0" fill="#FAC894"/><rect x="372" y="600" width="38" height="380" rx="0" fill="#DC8F4E"/><rect x="276" y="926" width="6" height="40" rx="3" fill="#DC8F4E"/><rect x="314" y="926" width="6" height="40" rx="3" fill="#DC8F4E"/><rect x="352" y="926" width="6" height="40" rx="3" fill="#DC8F4E"/></g><rect x="238" y="610" width="160" height="356" rx="8" fill="none" stroke="#15151b" stroke-width="7" stroke-linejoin="round"/><rect x="230" y="800" width="176" height="48" rx="5" fill="#F7F1E2"/><clipPath id="c24"><rect x="230" y="800" width="176" height="48" rx="5"/></clipPath><g clip-path="url(#c24)"><rect x="220" y="832" width="200" height="28" rx="0" fill="#DCD1B8"/></g><rect x="230" y="800" width="176" height="48" rx="5" fill="none" stroke="#15151b" stroke-width="7" stroke-linejoin="round"/><rect x="866" y="640" width="162" height="326" rx="8" fill="#F3AE6E"/><clipPath id="c25"><rect x="866" y="640" width="162" height="326" rx="8"/></clipPath><g clip-path="url(#c25)"><rect x="856" y="600" width="36" height="380" rx="0" fill="#DC8F4E"/><rect x="910" y="926" width="6" height="40" rx="3" fill="#DC8F4E"/><rect x="948" y="926" width="6" height="40" rx="3" fill="#DC8F4E"/><rect x="986" y="926" width="6" height="40" rx="3" fill="#DC8F4E"/></g><rect x="866" y="640" width="162" height="326" rx="8" fill="none" stroke="#15151b" stroke-width="7" stroke-linejoin="round"/><rect x="858" y="842" width="178" height="50" rx="5" fill="#F7F1E2"/><clipPath id="c26"><rect x="858" y="842" width="178" height="50" rx="5"/></clipPath><g clip-path="url(#c26)"><rect x="850" y="876" width="200" height="24" rx="0" fill="#DCD1B8"/></g><rect x="858" y="842" width="178" height="50" rx="5" fill="none" stroke="#15151b" stroke-width="7" stroke-linejoin="round"/><polygon points="856,546 1044,574 1090,634 1086,770 1062,752 1040,776 1016,754 992,774 968,750 944,768 920,746 896,762 872,742 852,754" fill="#EADCC0"/><clipPath id="c27"><polygon points="856,546 1044,574 1090,634 1086,770 1062,752 1040,776 1016,754 992,774 968,750 944,768 920,746 896,762 872,742 852,754"/></clipPath><g clip-path="url(#c27)"><polygon points="850,540 1046,568 1096,632 850,604" fill="#F6EDDA"/><polygon points="850,712 1100,724 1100,800 850,800" fill="#C9B48E"/><rect x="892" y="640" width="40" height="26" rx="9" fill="#8A5A2E"/><rect x="982" y="660" width="46" height="28" rx="10" fill="#8A5A2E"/><rect x="936" y="690" width="30" height="20" rx="8" fill="#8A5A2E"/><rect x="1040" y="700" width="26" height="20" rx="8" fill="#8A5A2E"/><rect x="1010" y="610" width="24" height="16" rx="7" fill="#8A5A2E"/></g><polygon points="856,546 1044,574 1090,634 1086,770 1062,752 1040,776 1016,754 992,774 968,750 944,768 920,746 896,762 872,742 852,754" fill="none" stroke="#15151b" stroke-width="7" stroke-linejoin="round"/><rect x="392" y="866" width="480" height="88" rx="5" fill="#5A2611"/><clipPath id="c28"><rect x="392" y="866" width="480" height="88" rx="5"/></clipPath><g clip-path="url(#c28)"><rect x="380" y="866" width="520" height="20" rx="0" fill="#763618"/></g><rect x="392" y="866" width="480" height="88" rx="5" fill="none" stroke="#15151b" stroke-width="7" stroke-linejoin="round"/><rect x="420" y="896" width="92" height="92" rx="8" fill="#8E4015"/><clipPath id="c29"><rect x="420" y="896" width="92" height="92" rx="8"/></clipPath><g clip-path="url(#c29)"><rect x="410" y="896" width="120" height="34" rx="0" fill="#6E300F"/><rect x="410" y="896" width="120" height="16" rx="0" fill="#5A2611"/></g><rect x="420" y="896" width="92" height="92" rx="8" fill="none" stroke="#15151b" stroke-width="7" stroke-linejoin="round"/><rect x="594" y="854" width="76" height="108" rx="14" fill="#F7F1E2"/><clipPath id="c30"><rect x="594" y="854" width="76" height="108" rx="14"/></clipPath><g clip-path="url(#c30)"><rect x="580" y="942" width="110" height="28" rx="0" fill="#DCD1B8"/><rect x="605" y="882" width="21" height="24" rx="3" fill="#15151b"/><rect x="638" y="882" width="21" height="24" rx="3" fill="#15151b"/><polygon points="632,914 624,928 640,928" fill="#15151b"/><rect x="618" y="944" width="5" height="14" rx="2" fill="#15151b"/><rect x="630" y="944" width="5" height="14" rx="2" fill="#15151b"/><rect x="642" y="944" width="5" height="14" rx="2" fill="#15151b"/></g><rect x="594" y="854" width="76" height="108" rx="14" fill="none" stroke="#15151b" stroke-width="7" stroke-linejoin="round"/><path d="M 516 666 Q 632 742 748 666" fill="none" stroke="#5A2611" stroke-width="7" stroke-linecap="round"/><g transform="translate(532.6 676.1) rotate(33)"><rect x="-8" y="-2" width="16" height="48" rx="7" fill="#F7F1E2"/><clipPath id="c31"><rect x="-8" y="-2" width="16" height="48" rx="7"/></clipPath><g clip-path="url(#c31)"><rect x="1" y="-4" width="10" height="56" rx="0" fill="#DCD1B8"/></g><rect x="-8" y="-2" width="16" height="48" rx="7" fill="none" stroke="#15151b" stroke-width="5" stroke-linejoin="round"/></g><g transform="translate(565.7 691.6) rotate(22)"><rect x="-8" y="-2" width="16" height="48" rx="7" fill="#F7F1E2"/><clipPath id="c32"><rect x="-8" y="-2" width="16" height="48" rx="7"/></clipPath><g clip-path="url(#c32)"><rect x="1" y="-4" width="10" height="56" rx="0" fill="#DCD1B8"/></g><rect x="-8" y="-2" width="16" height="48" rx="7" fill="none" stroke="#15151b" stroke-width="5" stroke-linejoin="round"/></g><g transform="translate(598.9 700.9) rotate(11)"><rect x="-8" y="-2" width="16" height="48" rx="7" fill="#F7F1E2"/><clipPath id="c33"><rect x="-8" y="-2" width="16" height="48" rx="7"/></clipPath><g clip-path="url(#c33)"><rect x="1" y="-4" width="10" height="56" rx="0" fill="#DCD1B8"/></g><rect x="-8" y="-2" width="16" height="48" rx="7" fill="none" stroke="#15151b" stroke-width="5" stroke-linejoin="round"/></g><g transform="translate(632.0 704.0) rotate(0)"><rect x="-8" y="-2" width="16" height="48" rx="7" fill="#F7F1E2"/><clipPath id="c34"><rect x="-8" y="-2" width="16" height="48" rx="7"/></clipPath><g clip-path="url(#c34)"><rect x="1" y="-4" width="10" height="56" rx="0" fill="#DCD1B8"/></g><rect x="-8" y="-2" width="16" height="48" rx="7" fill="none" stroke="#15151b" stroke-width="5" stroke-linejoin="round"/></g><g transform="translate(665.1 700.9) rotate(-11)"><rect x="-8" y="-2" width="16" height="48" rx="7" fill="#F7F1E2"/><clipPath id="c35"><rect x="-8" y="-2" width="16" height="48" rx="7"/></clipPath><g clip-path="url(#c35)"><rect x="1" y="-4" width="10" height="56" rx="0" fill="#DCD1B8"/></g><rect x="-8" y="-2" width="16" height="48" rx="7" fill="none" stroke="#15151b" stroke-width="5" stroke-linejoin="round"/></g><g transform="translate(698.3 691.6) rotate(-22)"><rect x="-8" y="-2" width="16" height="48" rx="7" fill="#F7F1E2"/><clipPath id="c36"><rect x="-8" y="-2" width="16" height="48" rx="7"/></clipPath><g clip-path="url(#c36)"><rect x="1" y="-4" width="10" height="56" rx="0" fill="#DCD1B8"/></g><rect x="-8" y="-2" width="16" height="48" rx="7" fill="none" stroke="#15151b" stroke-width="5" stroke-linejoin="round"/></g><g transform="translate(731.4 676.1) rotate(-33)"><rect x="-8" y="-2" width="16" height="48" rx="7" fill="#F7F1E2"/><clipPath id="c37"><rect x="-8" y="-2" width="16" height="48" rx="7"/></clipPath><g clip-path="url(#c37)"><rect x="1" y="-4" width="10" height="56" rx="0" fill="#DCD1B8"/></g><rect x="-8" y="-2" width="16" height="48" rx="7" fill="none" stroke="#15151b" stroke-width="5" stroke-linejoin="round"/></g><rect x="405" y="290" width="454" height="352" rx="8" fill="#F3AE6E"/><clipPath id="c38"><rect x="405" y="290" width="454" height="352" rx="8"/></clipPath><g clip-path="url(#c38)"><rect x="832" y="280" width="38" height="370" rx="0" fill="#DC8F4E"/><rect x="400" y="316" width="470" height="20" rx="0" fill="#DC8F4E"/></g><rect x="405" y="290" width="454" height="352" rx="8" fill="none" stroke="#15151b" stroke-width="7" stroke-linejoin="round"/><rect x="380" y="238" width="504" height="82" rx="5" fill="#C66B2B"/><clipPath id="c39"><rect x="380" y="238" width="504" height="82" rx="5"/></clipPath><g clip-path="url(#c39)"><rect x="370" y="238" width="530" height="18" rx="0" fill="#D8813F"/><rect x="370" y="300" width="530" height="30" rx="0" fill="#A4531C"/></g><rect x="380" y="238" width="504" height="82" rx="5" fill="none" stroke="#15151b" stroke-width="7" stroke-linejoin="round"/><rect x="358" y="150" width="548" height="98" rx="8" fill="#23232c"/><clipPath id="c40"><rect x="358" y="150" width="548" height="98" rx="8"/></clipPath><g clip-path="url(#c40)"><rect x="340" y="150" width="580" height="22" rx="0" fill="#454553"/></g><rect x="358" y="150" width="548" height="98" rx="8" fill="none" stroke="#15151b" stroke-width="7" stroke-linejoin="round"/><polygon points="632,232 678,278 632,324 586,278" fill="#2EE6C9"/><clipPath id="c41"><polygon points="632,232 678,278 632,324 586,278"/></clipPath><g clip-path="url(#c41)"><polygon points="632,232 632,278 586,278" fill="#A8F8EB"/><polygon points="632,278 678,278 632,324" fill="#17B39B"/></g><polygon points="632,232 678,278 632,324 586,278" fill="none" stroke="#15151b" stroke-width="7" stroke-linejoin="round"/><polygon points="468,366 572,394 572,428 468,400" fill="#15151b"/><polygon points="796,366 692,394 692,428 796,400" fill="#15151b"/><rect x="494" y="416" width="58" height="80" rx="5" fill="#15151b"/><clipPath id="c42"><rect x="494" y="416" width="58" height="80" rx="5"/></clipPath><g clip-path="url(#c42)"><rect x="505" y="427" width="17" height="20" rx="2" fill="#ffffff"/></g><rect x="712" y="416" width="58" height="80" rx="5" fill="#15151b"/><clipPath id="c43"><rect x="712" y="416" width="58" height="80" rx="5"/></clipPath><g clip-path="url(#c43)"><rect x="723" y="427" width="17" height="20" rx="2" fill="#ffffff"/></g><rect x="450" y="420" width="18" height="86" rx="3" fill="#E3262B"/><rect x="796" y="420" width="18" height="86" rx="3" fill="#E3262B"/><rect x="514" y="496" width="18" height="40" rx="3" fill="#E3262B"/><rect x="732" y="496" width="18" height="40" rx="3" fill="#E3262B"/><rect x="520" y="552" width="224" height="76" rx="12" fill="#1b1b22"/><clipPath id="c44"><rect x="520" y="552" width="224" height="76" rx="12"/></clipPath><g clip-path="url(#c44)"><rect x="590" y="564" width="84" height="14" rx="5" fill="#8C1418"/><rect x="574" y="600" width="116" height="40" rx="14" fill="#C4323A"/></g><rect x="520" y="552" width="224" height="76" rx="12" fill="none" stroke="#15151b" stroke-width="5" stroke-linejoin="round"/>
</g>
</svg>
