<svg xmlns="http://www.w3.org/2000/svg" viewBox="0 0 922 1099" width="922" height="1099">
<g transform="translate(-79.8 -50.4) scale(0.98)">
<g fill="#15151b" stroke="#15151b" stroke-width="24" stroke-linejoin="round"><rect x="-5.0" y="-56.0" width="10.0" height="56.0" rx="3" transform="translate(540 150) rotate(0.0)"/><rect x="-5.0" y="-52.2" width="10.0" height="52.2" rx="3" transform="translate(540 124) rotate(-57.5)"/><rect x="-5.0" y="-42.9" width="10.0" height="42.9" rx="3" transform="translate(540 124) rotate(62.2)"/><rect x="660.0" y="122.0" width="76.0" height="28.0" rx="4"/><rect x="688.0" y="110.0" width="20.0" height="16.0" rx="3"/><rect x="428.0" y="1036.0" width="182.0" height="50.0" rx="0"/><rect x="424.0" y="1080.0" width="188.0" height="58.0" rx="4"/><rect x="622.0" y="1036.0" width="182.0" height="50.0" rx="0"/><rect x="620.0" y="1080.0" width="188.0" height="58.0" rx="4"/><rect x="418.0" y="662.0" width="396.0" height="342.0" rx="4"/><rect x="459.0" y="730.0" width="314.0" height="316.0" rx="4"/><rect x="-9.0" y="-358.6" width="18.0" height="358.6" rx="5" transform="translate(496 964) rotate(38.7)"/><rect x="250.0" y="606.0" width="168.0" height="300.0" rx="6"/><rect x="250.0" y="900.0" width="168.0" height="90.0" rx="5"/><rect x="814.0" y="606.0" width="168.0" height="300.0" rx="6"/><rect x="814.0" y="900.0" width="168.0" height="90.0" rx="5"/><rect x="-35.0" y="-27.0" width="70.0" height="54.0" rx="4" transform="translate(170 842) rotate(10)"/><rect x="-35.0" y="-30.0" width="70.0" height="60.0" rx="4" transform="translate(330 840) rotate(-6)"/><rect x="-54.0" y="-54.0" width="108.0" height="108.0" rx="4" transform="translate(225 835) rotate(30)"/><rect x="285.0" y="376.0" width="55.0" height="10.0" rx="2"/><rect x="336.0" y="372.0" width="22.0" height="22.0" rx="3"/><rect x="870.0" y="372.0" width="25.0" height="22.0" rx="3"/><rect x="893.0" y="376.0" width="62.0" height="10.0" rx="2"/><rect x="393.0" y="300.0" width="27.0" height="172.0" rx="3"/><rect x="812.0" y="300.0" width="27.0" height="172.0" rx="3"/><rect x="418.0" y="294.0" width="396.0" height="378.0" rx="5"/><rect x="439.0" y="140.0" width="354.0" height="94.0" rx="4"/><rect x="426.0" y="224.0" width="380.0" height="38.0" rx="3"/><rect x="280.0" y="256.0" width="672.0" height="52.0" rx="6"/></g>
<rect x="-5.0" y="-56.0" width="10.0" height="56.0" rx="3" transform="translate(540 150) rotate(0.0)" fill="#58D050"/><rect x="-5.0" y="-56.0" width="10.0" height="56.0" rx="3" transform="translate(540 150) rotate(0.0)" fill="none" stroke="#15151b" stroke-width="5" stroke-linejoin="round"/><rect x="-5.0" y="-52.2" width="10.0" height="52.2" rx="3" transform="translate(540 124) rotate(-57.5)" fill="#7AE070"/><rect x="-5.0" y="-52.2" width="10.0" height="52.2" rx="3" transform="translate(540 124) rotate(-57.5)" fill="none" stroke="#15151b" stroke-width="5" stroke-linejoin="round"/><rect x="-5.0" y="-42.9" width="10.0" height="42.9" rx="3" transform="translate(540 124) rotate(62.2)" fill="#7AE070"/><rect x="-5.0" y="-42.9" width="10.0" height="42.9" rx="3" transform="translate(540 124) rotate(62.2)" fill="none" stroke="#15151b" stroke-width="5" stroke-linejoin="round"/><rect x="660.0" y="122.0" width="76.0" height="28.0" rx="4" fill="#F8A0E0"/><rect x="660.0" y="122.0" width="76.0" height="28.0" rx="4" fill="none" stroke="#15151b" stroke-width="5" stroke-linejoin="round"/><rect x="688.0" y="110.0" width="20.0" height="16.0" rx="3" fill="#FFE040"/><rect x="688.0" y="110.0" width="20.0" height="16.0" rx="3" fill="none" stroke="#15151b" stroke-width="5" stroke-linejoin="round"/><rect x="428.0" y="1036.0" width="182.0" height="50.0" rx="0" fill="#8A3A10"/><rect x="428.0" y="1036.0" width="182.0" height="50.0" rx="0" fill="none" stroke="#15151b" stroke-width="5" stroke-linejoin="round"/><rect x="424.0" y="1080.0" width="188.0" height="58.0" rx="4" fill="#4A1406"/><rect x="424.0" y="1080.0" width="188.0" height="58.0" rx="4" fill="none" stroke="#15151b" stroke-width="5" stroke-linejoin="round"/><rect x="622.0" y="1036.0" width="182.0" height="50.0" rx="0" fill="#8A3A10"/><rect x="622.0" y="1036.0" width="182.0" height="50.0" rx="0" fill="none" stroke="#15151b" stroke-width="5" stroke-linejoin="round"/><rect x="620.0" y="1080.0" width="188.0" height="58.0" rx="4" fill="#4A1406"/><rect x="620.0" y="1080.0" width="188.0" height="58.0" rx="4" fill="none" stroke="#15151b" stroke-width="5" stroke-linejoin="round"/><rect x="418.0" y="662.0" width="396.0" height="342.0" rx="4" fill="#20C850"/><clipPath id="c9"><rect x="418.0" y="662.0" width="396.0" height="342.0" rx="4"/></clipPath><g clip-path="url(#c9)"><rect x="410.0" y="662.0" width="412.0" height="24.0" rx="0" fill="#44DC70"/><rect x="792.0" y="655.0" width="30.0" height="355.0" rx="0" fill="#10A838"/></g><rect x="418.0" y="662.0" width="396.0" height="342.0" rx="4" fill="none" stroke="#15151b" stroke-width="5" stroke-linejoin="round"/><rect x="459.0" y="730.0" width="314.0" height="316.0" rx="4" fill="#F0C880"/><clipPath id="c10"><rect x="459.0" y="730.0" width="314.0" height="316.0" rx="4"/></clipPath><g clip-path="url(#c10)"><rect x="752.0" y="725.0" width="25.0" height="325.0" rx="0" fill="#E0B46A"/><rect x="525.0" y="895.0" width="160.0" height="90.0" rx="3" fill="#D8A040"/></g><rect x="459.0" y="730.0" width="314.0" height="316.0" rx="4" fill="none" stroke="#15151b" stroke-width="5" stroke-linejoin="round"/><rect x="552.0" y="878.0" width="46.0" height="52.0" rx="3" fill="#FFF000"/><rect x="552.0" y="878.0" width="46.0" height="52.0" rx="3" fill="none" stroke="#15151b" stroke-width="3" stroke-linejoin="round"/><rect x="620.0" y="878.0" width="48.0" height="70.0" rx="3" fill="#F8A0E8"/><rect x="620.0" y="878.0" width="48.0" height="70.0" rx="3" fill="none" stroke="#15151b" stroke-width="3" stroke-linejoin="round"/><rect x="-9.0" y="-358.6" width="18.0" height="358.6" rx="5" transform="translate(496 964) rotate(38.7)" fill="#40D850"/><rect x="-9.0" y="-358.6" width="18.0" height="358.6" rx="5" transform="translate(496 964) rotate(38.7)" fill="none" stroke="#15151b" stroke-width="5" stroke-linejoin="round"/><rect x="-18.0" y="-11.0" width="36.0" height="22.0" rx="3" transform="translate(690 720) rotate(-52)" fill="#8AE890"/><rect x="-18.0" y="-11.0" width="36.0" height="22.0" rx="3" transform="translate(690 720) rotate(-52)" fill="none" stroke="#15151b" stroke-width="3" stroke-linejoin="round"/><rect x="-18.0" y="-11.0" width="36.0" height="22.0" rx="3" transform="translate(585 855) rotate(-52)" fill="#8AE890"/><rect x="-18.0" y="-11.0" width="36.0" height="22.0" rx="3" transform="translate(585 855) rotate(-52)" fill="none" stroke="#15151b" stroke-width="3" stroke-linejoin="round"/><rect x="-18.0" y="-11.0" width="36.0" height="22.0" rx="3" transform="translate(515 940) rotate(-52)" fill="#8AE890"/><rect x="-18.0" y="-11.0" width="36.0" height="22.0" rx="3" transform="translate(515 940) rotate(-52)" fill="none" stroke="#15151b" stroke-width="3" stroke-linejoin="round"/><rect x="250.0" y="606.0" width="168.0" height="300.0" rx="6" fill="#22D062"/><clipPath id="c17"><rect x="250.0" y="606.0" width="168.0" height="300.0" rx="6"/></clipPath><g clip-path="url(#c17)"><rect x="242.0" y="606.0" width="184.0" height="24.0" rx="0" fill="#44DC70"/><rect x="394.0" y="600.0" width="32.0" height="312.0" rx="0" fill="#10A838"/><rect x="-80.0" y="-6.0" width="160.0" height="12.0" rx="0" transform="translate(334 760) rotate(-12)" fill="#10A838"/></g><rect x="250.0" y="606.0" width="168.0" height="300.0" rx="6" fill="none" stroke="#15151b" stroke-width="5" stroke-linejoin="round"/><rect x="250.0" y="900.0" width="168.0" height="90.0" rx="5" fill="#FCDEC0"/><clipPath id="c18"><rect x="250.0" y="900.0" width="168.0" height="90.0" rx="5"/></clipPath><g clip-path="url(#c18)"><rect x="394.0" y="895.0" width="32.0" height="100.0" rx="0" fill="#F0CCAA"/></g><rect x="250.0" y="900.0" width="168.0" height="90.0" rx="5" fill="none" stroke="#15151b" stroke-width="5" stroke-linejoin="round"/><polygon points="318.0,618.0 376.0,600.0 360.0,628.0" fill="#8AF0A0"/><polygon points="318.0,618.0 376.0,600.0 360.0,628.0" fill="none" stroke="#15151b" stroke-width="3" stroke-linejoin="round"/><rect x="814.0" y="606.0" width="168.0" height="300.0" rx="6" fill="#22D062"/><clipPath id="c20"><rect x="814.0" y="606.0" width="168.0" height="300.0" rx="6"/></clipPath><g clip-path="url(#c20)"><rect x="806.0" y="606.0" width="184.0" height="24.0" rx="0" fill="#44DC70"/><rect x="806.0" y="600.0" width="32.0" height="312.0" rx="0" fill="#10A838"/><rect x="-80.0" y="-6.0" width="160.0" height="12.0" rx="0" transform="translate(898 760) rotate(12)" fill="#10A838"/></g><rect x="814.0" y="606.0" width="168.0" height="300.0" rx="6" fill="none" stroke="#15151b" stroke-width="5" stroke-linejoin="round"/><rect x="814.0" y="900.0" width="168.0" height="90.0" rx="5" fill="#FCDEC0"/><clipPath id="c21"><rect x="814.0" y="900.0" width="168.0" height="90.0" rx="5"/></clipPath><g clip-path="url(#c21)"><rect x="806.0" y="895.0" width="32.0" height="100.0" rx="0" fill="#F0CCAA"/></g><rect x="814.0" y="900.0" width="168.0" height="90.0" rx="5" fill="none" stroke="#15151b" stroke-width="5" stroke-linejoin="round"/><polygon points="914.0,618.0 856.0,600.0 872.0,628.0" fill="#8AF0A0"/><polygon points="914.0,618.0 856.0,600.0 872.0,628.0" fill="none" stroke="#15151b" stroke-width="3" stroke-linejoin="round"/><rect x="-35.0" y="-27.0" width="70.0" height="54.0" rx="4" transform="translate(170 842) rotate(10)" fill="#80E878"/><clipPath id="c23"><rect x="-35.0" y="-27.0" width="70.0" height="54.0" rx="4" transform="translate(170 842) rotate(10)"/></clipPath><g clip-path="url(#c23)"><rect x="-40.0" y="-32.0" width="80.0" height="20.1" rx="0" transform="translate(170 842) rotate(10)" fill="#B3F1AE"/><rect x="12.6" y="-11.9" width="27.4" height="43.9" rx="0" transform="translate(170 842) rotate(10)" fill="#66BA60"/></g><rect x="-35.0" y="-27.0" width="70.0" height="54.0" rx="4" transform="translate(170 842) rotate(10)" fill="none" stroke="#15151b" stroke-width="5" stroke-linejoin="round"/><rect x="-35.0" y="-30.0" width="70.0" height="60.0" rx="4" transform="translate(330 840) rotate(-6)" fill="#80E878"/><clipPath id="c24"><rect x="-35.0" y="-30.0" width="70.0" height="60.0" rx="4" transform="translate(330 840) rotate(-6)"/></clipPath><g clip-path="url(#c24)"><rect x="-40.0" y="-35.0" width="80.0" height="21.8" rx="0" transform="translate(330 840) rotate(-6)" fill="#B3F1AE"/><rect x="12.6" y="-13.2" width="27.4" height="48.2" rx="0" transform="translate(330 840) rotate(-6)" fill="#66BA60"/></g><rect x="-35.0" y="-30.0" width="70.0" height="60.0" rx="4" transform="translate(330 840) rotate(-6)" fill="none" stroke="#15151b" stroke-width="5" stroke-linejoin="round"/><rect x="-54.0" y="-54.0" width="108.0" height="108.0" rx="4" transform="translate(225 835) rotate(30)" fill="#40E8C0"/><clipPath id="c25"><rect x="-54.0" y="-54.0" width="108.0" height="108.0" rx="4" transform="translate(225 835) rotate(30)"/></clipPath><g clip-path="url(#c25)"><rect x="-59.0" y="-59.0" width="118.0" height="35.2" rx="0" transform="translate(225 835) rotate(30)" fill="#8CF1D9"/><rect x="19.4" y="-23.8" width="39.6" height="82.8" rx="0" transform="translate(225 835) rotate(30)" fill="#33BA9A"/></g><rect x="-54.0" y="-54.0" width="108.0" height="108.0" rx="4" transform="translate(225 835) rotate(30)" fill="none" stroke="#15151b" stroke-width="5" stroke-linejoin="round"/><rect x="285.0" y="376.0" width="55.0" height="10.0" rx="2" fill="#F8A0E0"/><rect x="285.0" y="376.0" width="55.0" height="10.0" rx="2" fill="none" stroke="#15151b" stroke-width="5" stroke-linejoin="round"/><rect x="336.0" y="372.0" width="22.0" height="22.0" rx="3" fill="#1A1A24"/><rect x="336.0" y="372.0" width="22.0" height="22.0" rx="3" fill="none" stroke="#15151b" stroke-width="5" stroke-linejoin="round"/><rect x="870.0" y="372.0" width="25.0" height="22.0" rx="3" fill="#1A1A24"/><rect x="870.0" y="372.0" width="25.0" height="22.0" rx="3" fill="none" stroke="#15151b" stroke-width="5" stroke-linejoin="round"/><rect x="893.0" y="376.0" width="62.0" height="10.0" rx="2" fill="#FFE800"/><rect x="893.0" y="376.0" width="62.0" height="10.0" rx="2" fill="none" stroke="#15151b" stroke-width="5" stroke-linejoin="round"/><rect x="393.0" y="300.0" width="27.0" height="172.0" rx="3" fill="#8A3A10"/><rect x="393.0" y="300.0" width="27.0" height="172.0" rx="3" fill="none" stroke="#15151b" stroke-width="5" stroke-linejoin="round"/><rect x="812.0" y="300.0" width="27.0" height="172.0" rx="3" fill="#8A3A10"/><rect x="812.0" y="300.0" width="27.0" height="172.0" rx="3" fill="none" stroke="#15151b" stroke-width="5" stroke-linejoin="round"/><rect x="418.0" y="294.0" width="396.0" height="378.0" rx="5" fill="#FCDEC0"/><clipPath id="c32"><rect x="418.0" y="294.0" width="396.0" height="378.0" rx="5"/></clipPath><g clip-path="url(#c32)"><rect x="792.0" y="288.0" width="30.0" height="390.0" rx="0" fill="#F0CCAA"/></g><rect x="418.0" y="294.0" width="396.0" height="378.0" rx="5" fill="none" stroke="#15151b" stroke-width="5" stroke-linejoin="round"/><rect x="439.0" y="140.0" width="354.0" height="94.0" rx="4" fill="#F8DC80"/><clipPath id="c33"><rect x="439.0" y="140.0" width="354.0" height="94.0" rx="4"/></clipPath><g clip-path="url(#c33)"><rect x="432.0" y="140.0" width="368.0" height="14.0" rx="0" fill="#FFEAA4"/><rect x="770.0" y="135.0" width="30.0" height="105.0" rx="0" fill="#E8C868"/></g><rect x="439.0" y="140.0" width="354.0" height="94.0" rx="4" fill="none" stroke="#15151b" stroke-width="5" stroke-linejoin="round"/><rect x="426.0" y="224.0" width="380.0" height="38.0" rx="3" fill="#20C850"/><rect x="426.0" y="224.0" width="380.0" height="38.0" rx="3" fill="none" stroke="#15151b" stroke-width="5" stroke-linejoin="round"/><polygon points="616.0,198.0 654.0,236.0 616.0,274.0 578.0,236.0" fill="#30E070"/><clipPath id="c35"><polygon points="616.0,198.0 654.0,236.0 616.0,274.0 578.0,236.0"/></clipPath><g clip-path="url(#c35)"><polygon points="616.0,198.0 616.0,236.0 578.0,236.0" fill="#8DEEB0"/><polygon points="616.0,236.0 654.0,236.0 616.0,274.0" fill="#25AF57"/></g><polygon points="616.0,198.0 654.0,236.0 616.0,274.0 578.0,236.0" fill="none" stroke="#15151b" stroke-width="5" stroke-linejoin="round"/><rect x="280.0" y="256.0" width="672.0" height="52.0" rx="6" fill="#F4D878"/><clipPath id="c36"><rect x="280.0" y="256.0" width="672.0" height="52.0" rx="6"/></clipPath><g clip-path="url(#c36)"><rect x="275.0" y="256.0" width="682.0" height="14.0" rx="0" fill="#FFEAA4"/><rect x="275.0" y="294.0" width="682.0" height="18.0" rx="0" fill="#E0C064"/></g><rect x="280.0" y="256.0" width="672.0" height="52.0" rx="6" fill="none" stroke="#15151b" stroke-width="5" stroke-linejoin="round"/><rect x="492.0" y="435.0" width="60.0" height="93.0" rx="3" fill="#0A6A1A"/><clipPath id="c37"><rect x="492.0" y="435.0" width="60.0" height="93.0" rx="3"/></clipPath><g clip-path="url(#c37)"><rect x="498.0" y="448.0" width="22.0" height="27.0" rx="2" fill="#FFFFFF"/></g><rect x="680.0" y="435.0" width="60.0" height="93.0" rx="3" fill="#0A6A1A"/><clipPath id="c38"><rect x="680.0" y="435.0" width="60.0" height="93.0" rx="3"/></clipPath><g clip-path="url(#c38)"><rect x="686.0" y="448.0" width="22.0" height="27.0" rx="2" fill="#FFFFFF"/></g><rect x="450.0" y="535.0" width="55.0" height="25.0" rx="4" fill="#F8B8A8"/><rect x="727.0" y="535.0" width="55.0" height="25.0" rx="4" fill="#F8B8A8"/><rect x="581.0" y="582.0" width="70.0" height="18.0" rx="2" fill="#8A2A10"/>
</g>
</svg>
