<svg xmlns="http://www.w3.org/2000/svg" viewBox="0 0 969 1131" width="969" height="1131">
<g transform="translate(-12.5 -36.1) scale(1.18)">
<g fill="#15151b" stroke="#15151b" stroke-width="24" stroke-linejoin="round"><rect x="255.0" y="780.0" width="160.0" height="100.0" rx="0"/><rect x="248.0" y="872.0" width="172.0" height="88.0" rx="4"/><rect x="449.0" y="780.0" width="160.0" height="100.0" rx="0"/><rect x="444.0" y="872.0" width="172.0" height="88.0" rx="4"/><rect x="240.0" y="504.0" width="384.0" height="276.0" rx="4"/><rect x="232.0" y="732.0" width="400.0" height="48.0" rx="4"/><rect x="80.0" y="444.0" width="160.0" height="232.0" rx="6"/><rect x="90.0" y="668.0" width="150.0" height="44.0" rx="4"/><rect x="90.0" y="706.0" width="150.0" height="84.0" rx="5"/><rect x="624.0" y="444.0" width="160.0" height="232.0" rx="6"/><rect x="624.0" y="668.0" width="150.0" height="44.0" rx="4"/><rect x="624.0" y="706.0" width="150.0" height="84.0" rx="5"/><rect x="98.0" y="684.0" width="82.0" height="56.0" rx="3"/><rect x="-38.0" y="-37.0" width="76.0" height="74.0" rx="4" transform="translate(70 648) rotate(0)"/><rect x="244.0" y="176.0" width="376.0" height="330.0" rx="5"/><polygon points="234.0,92.0 630.0,92.0 630.0,216.0 608.0,226.0 548.0,208.0 490.0,222.0 424.0,206.0 362.0,222.0 300.0,208.0 234.0,226.0"/></g>
<rect x="255.0" y="780.0" width="160.0" height="100.0" rx="0" fill="#E0D0F0"/><clipPath id="c0"><rect x="255.0" y="780.0" width="160.0" height="100.0" rx="0"/></clipPath><g clip-path="url(#c0)"><rect x="390.0" y="775.0" width="30.0" height="110.0" rx="0" fill="#CCB8E4"/></g><rect x="255.0" y="780.0" width="160.0" height="100.0" rx="0" fill="none" stroke="#15151b" stroke-width="5" stroke-linejoin="round"/><rect x="248.0" y="872.0" width="172.0" height="88.0" rx="4" fill="#FAF6F8"/><clipPath id="c1"><rect x="248.0" y="872.0" width="172.0" height="88.0" rx="4"/></clipPath><g clip-path="url(#c1)"><rect x="242.0" y="872.0" width="184.0" height="12.0" rx="0" fill="#FFFFFF"/></g><rect x="248.0" y="872.0" width="172.0" height="88.0" rx="4" fill="none" stroke="#15151b" stroke-width="5" stroke-linejoin="round"/><polygon points="333.0,902.0 355.0,924.0 333.0,946.0 311.0,924.0" fill="#F888D0"/><clipPath id="c2"><polygon points="333.0,902.0 355.0,924.0 333.0,946.0 311.0,924.0"/></clipPath><g clip-path="url(#c2)"><polygon points="333.0,902.0 333.0,924.0 311.0,924.0" fill="#FBBEE5"/><polygon points="333.0,924.0 355.0,924.0 333.0,946.0" fill="#C16AA2"/></g><polygon points="333.0,902.0 355.0,924.0 333.0,946.0 311.0,924.0" fill="none" stroke="#15151b" stroke-width="3" stroke-linejoin="round"/><rect x="449.0" y="780.0" width="160.0" height="100.0" rx="0" fill="#E0D0F0"/><clipPath id="c3"><rect x="449.0" y="780.0" width="160.0" height="100.0" rx="0"/></clipPath><g clip-path="url(#c3)"><rect x="444.0" y="775.0" width="30.0" height="110.0" rx="0" fill="#CCB8E4"/></g><rect x="449.0" y="780.0" width="160.0" height="100.0" rx="0" fill="none" stroke="#15151b" stroke-width="5" stroke-linejoin="round"/><rect x="444.0" y="872.0" width="172.0" height="88.0" rx="4" fill="#FAF6F8"/><clipPath id="c4"><rect x="444.0" y="872.0" width="172.0" height="88.0" rx="4"/></clipPath><g clip-path="url(#c4)"><rect x="438.0" y="872.0" width="184.0" height="12.0" rx="0" fill="#FFFFFF"/></g><rect x="444.0" y="872.0" width="172.0" height="88.0" rx="4" fill="none" stroke="#15151b" stroke-width="5" stroke-linejoin="round"/><polygon points="531.0,902.0 553.0,924.0 531.0,946.0 509.0,924.0" fill="#F888D0"/><clipPath id="c5"><polygon points="531.0,902.0 553.0,924.0 531.0,946.0 509.0,924.0"/></clipPath><g clip-path="url(#c5)"><polygon points="531.0,902.0 531.0,924.0 509.0,924.0" fill="#FBBEE5"/><polygon points="531.0,924.0 553.0,924.0 531.0,946.0" fill="#C16AA2"/></g><polygon points="531.0,902.0 553.0,924.0 531.0,946.0 509.0,924.0" fill="none" stroke="#15151b" stroke-width="3" stroke-linejoin="round"/><rect x="240.0" y="504.0" width="384.0" height="276.0" rx="4" fill="#FAF6F8"/><clipPath id="c6"><rect x="240.0" y="504.0" width="384.0" height="276.0" rx="4"/></clipPath><g clip-path="url(#c6)"><rect x="602.0" y="498.0" width="28.0" height="287.0" rx="0" fill="#E8E2EA"/></g><rect x="240.0" y="504.0" width="384.0" height="276.0" rx="4" fill="none" stroke="#15151b" stroke-width="5" stroke-linejoin="round"/><polygon points="420.0,534.0 508.0,622.0 420.0,710.0 332.0,622.0" fill="#C8C0D0"/><clipPath id="c7"><polygon points="420.0,534.0 508.0,622.0 420.0,710.0 332.0,622.0"/></clipPath><g clip-path="url(#c7)"><polygon points="420.0,622.0 508.0,622.0 420.0,710.0" fill="#B4AAC0"/></g><polygon points="420.0,534.0 508.0,622.0 420.0,710.0 332.0,622.0" fill="none" stroke="#15151b" stroke-width="4" stroke-linejoin="round"/><polygon points="398.0,580.0 398.0,660.0 348.0,624.0" fill="#A8E0F8"/><rect x="232.0" y="732.0" width="400.0" height="48.0" rx="4" fill="#E8C0F8"/><clipPath id="c9"><rect x="232.0" y="732.0" width="400.0" height="48.0" rx="4"/></clipPath><g clip-path="url(#c9)"><rect x="225.0" y="732.0" width="414.0" height="10.0" rx="0" fill="#F4DCFC"/></g><rect x="232.0" y="732.0" width="400.0" height="48.0" rx="4" fill="none" stroke="#15151b" stroke-width="5" stroke-linejoin="round"/><rect x="80.0" y="444.0" width="160.0" height="232.0" rx="6" fill="#FAF6F8"/><clipPath id="c10"><rect x="80.0" y="444.0" width="160.0" height="232.0" rx="6"/></clipPath><g clip-path="url(#c10)"><rect x="72.0" y="444.0" width="174.0" height="22.0" rx="0" fill="#FFFFFF"/><rect x="218.0" y="438.0" width="28.0" height="244.0" rx="0" fill="#E8E2EA"/></g><rect x="80.0" y="444.0" width="160.0" height="232.0" rx="6" fill="none" stroke="#15151b" stroke-width="5" stroke-linejoin="round"/><rect x="90.0" y="668.0" width="150.0" height="44.0" rx="4" fill="#E8C0F8"/><rect x="90.0" y="668.0" width="150.0" height="44.0" rx="4" fill="none" stroke="#15151b" stroke-width="5" stroke-linejoin="round"/><rect x="90.0" y="706.0" width="150.0" height="84.0" rx="5" fill="#FDE8E0"/><clipPath id="c12"><rect x="90.0" y="706.0" width="150.0" height="84.0" rx="5"/></clipPath><g clip-path="url(#c12)"><rect x="218.0" y="700.0" width="28.0" height="96.0" rx="0" fill="#F2D6CC"/></g><rect x="90.0" y="706.0" width="150.0" height="84.0" rx="5" fill="none" stroke="#15151b" stroke-width="5" stroke-linejoin="round"/><rect x="624.0" y="444.0" width="160.0" height="232.0" rx="6" fill="#FAF6F8"/><clipPath id="c13"><rect x="624.0" y="444.0" width="160.0" height="232.0" rx="6"/></clipPath><g clip-path="url(#c13)"><rect x="618.0" y="444.0" width="174.0" height="22.0" rx="0" fill="#FFFFFF"/><rect x="618.0" y="438.0" width="28.0" height="244.0" rx="0" fill="#E8E2EA"/></g><rect x="624.0" y="444.0" width="160.0" height="232.0" rx="6" fill="none" stroke="#15151b" stroke-width="5" stroke-linejoin="round"/><rect x="624.0" y="668.0" width="150.0" height="44.0" rx="4" fill="#E8C0F8"/><rect x="624.0" y="668.0" width="150.0" height="44.0" rx="4" fill="none" stroke="#15151b" stroke-width="5" stroke-linejoin="round"/><rect x="624.0" y="706.0" width="150.0" height="84.0" rx="5" fill="#FDE8E0"/><clipPath id="c15"><rect x="624.0" y="706.0" width="150.0" height="84.0" rx="5"/></clipPath><g clip-path="url(#c15)"><rect x="618.0" y="700.0" width="28.0" height="96.0" rx="0" fill="#F2D6CC"/></g><rect x="624.0" y="706.0" width="150.0" height="84.0" rx="5" fill="none" stroke="#15151b" stroke-width="5" stroke-linejoin="round"/><rect x="98.0" y="684.0" width="82.0" height="56.0" rx="3" fill="#F0F4F8"/><clipPath id="c16"><rect x="98.0" y="684.0" width="82.0" height="56.0" rx="3"/></clipPath><g clip-path="url(#c16)"><rect x="150.0" y="680.0" width="34.0" height="64.0" rx="0" fill="#DDE4EC"/></g><rect x="98.0" y="684.0" width="82.0" height="56.0" rx="3" fill="none" stroke="#15151b" stroke-width="5" stroke-linejoin="round"/><polygon points="110.0,738.0 120.0,738.0 115.0,768.0" fill="#F0F6FC"/><polygon points="110.0,738.0 120.0,738.0 115.0,768.0" fill="none" stroke="#15151b" stroke-width="2" stroke-linejoin="round"/><polygon points="124.0,738.0 134.0,738.0 129.0,768.0" fill="#F0F6FC"/><polygon points="124.0,738.0 134.0,738.0 129.0,768.0" fill="none" stroke="#15151b" stroke-width="2" stroke-linejoin="round"/><polygon points="138.0,738.0 148.0,738.0 143.0,768.0" fill="#F0F6FC"/><polygon points="138.0,738.0 148.0,738.0 143.0,768.0" fill="none" stroke="#15151b" stroke-width="2" stroke-linejoin="round"/><polygon points="152.0,738.0 162.0,738.0 157.0,768.0" fill="#F0F6FC"/><polygon points="152.0,738.0 162.0,738.0 157.0,768.0" fill="none" stroke="#15151b" stroke-width="2" stroke-linejoin="round"/><polygon points="166.0,738.0 176.0,738.0 171.0,768.0" fill="#F0F6FC"/><polygon points="166.0,738.0 176.0,738.0 171.0,768.0" fill="none" stroke="#15151b" stroke-width="2" stroke-linejoin="round"/><rect x="-38.0" y="-37.0" width="76.0" height="74.0" rx="4" transform="translate(70 648) rotate(0)" fill="#C8F4FC"/><clipPath id="c22"><rect x="-38.0" y="-37.0" width="76.0" height="74.0" rx="4" transform="translate(70 648) rotate(0)"/></clipPath><g clip-path="url(#c22)"><rect x="-43.0" y="-42.0" width="86.0" height="25.7" rx="0" transform="translate(70 648) rotate(0)" fill="#DEF8FD"/><rect x="13.7" y="-16.3" width="29.3" height="58.3" rx="0" transform="translate(70 648) rotate(0)" fill="#A0C3CA"/></g><rect x="-38.0" y="-37.0" width="76.0" height="74.0" rx="4" transform="translate(70 648) rotate(0)" fill="none" stroke="#15151b" stroke-width="5" stroke-linejoin="round"/><rect x="-10.0" y="-30.0" width="20.0" height="60.0" rx="3" transform="translate(130 632) rotate(-20)" fill="#C080F0"/><rect x="-10.0" y="-30.0" width="20.0" height="60.0" rx="3" transform="translate(130 632) rotate(-20)" fill="none" stroke="#15151b" stroke-width="3" stroke-linejoin="round"/><rect x="-10.0" y="-28.0" width="20.0" height="56.0" rx="3" transform="translate(142 668) rotate(-30)" fill="#40D8E8"/><rect x="-10.0" y="-28.0" width="20.0" height="56.0" rx="3" transform="translate(142 668) rotate(-30)" fill="none" stroke="#15151b" stroke-width="3" stroke-linejoin="round"/><rect x="244.0" y="176.0" width="376.0" height="330.0" rx="5" fill="#FDE8E0"/><clipPath id="c25"><rect x="244.0" y="176.0" width="376.0" height="330.0" rx="5"/></clipPath><g clip-path="url(#c25)"><rect x="598.0" y="170.0" width="28.0" height="342.0" rx="0" fill="#F2D6CC"/></g><rect x="244.0" y="176.0" width="376.0" height="330.0" rx="5" fill="none" stroke="#15151b" stroke-width="5" stroke-linejoin="round"/><polygon points="234.0,92.0 630.0,92.0 630.0,216.0 608.0,226.0 548.0,208.0 490.0,222.0 424.0,206.0 362.0,222.0 300.0,208.0 234.0,226.0" fill="#D8F2F8"/><clipPath id="c26"><polygon points="234.0,92.0 630.0,92.0 630.0,216.0 608.0,226.0 548.0,208.0 490.0,222.0 424.0,206.0 362.0,222.0 300.0,208.0 234.0,226.0"/></clipPath><g clip-path="url(#c26)"><rect x="230.0" y="92.0" width="404.0" height="18.0" rx="0" fill="#ECFAFC"/></g><polygon points="234.0,92.0 630.0,92.0 630.0,216.0 608.0,226.0 548.0,208.0 490.0,222.0 424.0,206.0 362.0,222.0 300.0,208.0 234.0,226.0" fill="none" stroke="#15151b" stroke-width="5" stroke-linejoin="round"/><rect x="226.0" y="138.0" width="412.0" height="34.0" rx="3" fill="#C8C0CC"/><rect x="226.0" y="138.0" width="412.0" height="34.0" rx="3" fill="none" stroke="#15151b" stroke-width="4" stroke-linejoin="round"/><polygon points="318.0,118.0 354.0,154.0 318.0,190.0 282.0,154.0" fill="#A8F4D8"/><clipPath id="c28"><polygon points="318.0,118.0 354.0,154.0 318.0,190.0 282.0,154.0"/></clipPath><g clip-path="url(#c28)"><polygon points="318.0,118.0 318.0,154.0 282.0,154.0" fill="#CFF9EA"/><polygon points="318.0,154.0 354.0,154.0 318.0,190.0" fill="#83BEA8"/></g><polygon points="318.0,118.0 354.0,154.0 318.0,190.0 282.0,154.0" fill="none" stroke="#15151b" stroke-width="5" stroke-linejoin="round"/><polygon points="426.0,82.0 482.0,138.0 426.0,194.0 370.0,138.0" fill="#DDA8F8"/><clipPath id="c29"><polygon points="426.0,82.0 482.0,138.0 426.0,194.0 370.0,138.0"/></clipPath><g clip-path="url(#c29)"><polygon points="426.0,82.0 426.0,138.0 370.0,138.0" fill="#ECCFFB"/><polygon points="426.0,138.0 482.0,138.0 426.0,194.0" fill="#AC83C1"/></g><polygon points="426.0,82.0 482.0,138.0 426.0,194.0 370.0,138.0" fill="none" stroke="#15151b" stroke-width="5" stroke-linejoin="round"/><polygon points="540.0,118.0 576.0,154.0 540.0,190.0 504.0,154.0" fill="#F8A8E0"/><clipPath id="c30"><polygon points="540.0,118.0 576.0,154.0 540.0,190.0 504.0,154.0"/></clipPath><g clip-path="url(#c30)"><polygon points="540.0,118.0 540.0,154.0 504.0,154.0" fill="#FBCFEE"/><polygon points="540.0,154.0 576.0,154.0 540.0,190.0" fill="#C183AF"/></g><polygon points="540.0,118.0 576.0,154.0 540.0,190.0 504.0,154.0" fill="none" stroke="#15151b" stroke-width="5" stroke-linejoin="round"/><rect x="312.0" y="292.0" width="60.0" height="94.0" rx="4" fill="#05051A"/><clipPath id="c31"><rect x="312.0" y="292.0" width="60.0" height="94.0" rx="4"/></clipPath><g clip-path="url(#c31)"><rect x="322.0" y="302.0" width="18.0" height="32.0" rx="2" fill="#FFFFFF"/><rect x="346.0" y="352.0" width="10.0" height="12.0" rx="2" fill="#FFFFFF"/></g><rect x="492.0" y="292.0" width="60.0" height="94.0" rx="4" fill="#05051A"/><clipPath id="c32"><rect x="492.0" y="292.0" width="60.0" height="94.0" rx="4"/></clipPath><g clip-path="url(#c32)"><rect x="502.0" y="302.0" width="18.0" height="32.0" rx="2" fill="#FFFFFF"/><rect x="526.0" y="352.0" width="10.0" height="12.0" rx="2" fill="#FFFFFF"/></g><rect x="268.0" y="386.0" width="58.0" height="28.0" rx="5" fill="#F8C0D8"/><rect x="538.0" y="386.0" width="58.0" height="28.0" rx="5" fill="#F8C0D8"/><rect x="402.0" y="424.0" width="38.0" height="18.0" rx="3" fill="#F070A8"/>
</g>
</svg>
