<svg xmlns="http://www.w3.org/2000/svg" viewBox="0 0 855 1106" width="855" height="1106">
<g transform="translate(-14.8 -21.5) scale(1.12)">
<g fill="#15151b" stroke="#15151b" stroke-width="24" stroke-linejoin="round"><rect x="314.0" y="68.0" width="238.0" height="26.0" rx="4"/><rect x="408.0" y="52.0" width="52.0" height="30.0" rx="4"/><rect x="424.0" y="88.0" width="16.0" height="76.0" rx="2"/><rect x="275.0" y="830.0" width="149.0" height="86.0" rx="0"/><rect x="270.0" y="908.0" width="156.0" height="68.0" rx="4"/><rect x="436.0" y="830.0" width="149.0" height="86.0" rx="0"/><rect x="434.0" y="908.0" width="156.0" height="68.0" rx="4"/><rect x="262.0" y="546.0" width="336.0" height="296.0" rx="4"/><rect x="292.0" y="576.0" width="276.0" height="266.0" rx="3"/><rect x="252.0" y="736.0" width="356.0" height="110.0" rx="4"/><rect x="122.0" y="510.0" width="144.0" height="208.0" rx="5"/><rect x="122.0" y="704.0" width="144.0" height="96.0" rx="5"/><rect x="594.0" y="510.0" width="144.0" height="208.0" rx="5"/><rect x="594.0" y="704.0" width="144.0" height="96.0" rx="5"/><rect x="-29.0" y="-240.1" width="58.0" height="240.1" rx="4" transform="translate(122 800) rotate(1.9)"/><rect x="-45.0" y="-37.0" width="90.0" height="74.0" rx="4" transform="translate(118 578) rotate(0)"/><rect x="-42.0" y="-35.0" width="84.0" height="70.0" rx="4" transform="translate(106 758) rotate(0)"/><rect x="268.0" y="202.0" width="324.0" height="350.0" rx="5"/><polygon points="262.0,170.0 330.0,170.0 370.0,126.0 410.0,164.0 452.0,164.0 490.0,126.0 526.0,170.0 598.0,170.0 598.0,230.0 262.0,230.0"/><rect x="254.0" y="256.0" width="352.0" height="34.0" rx="3"/></g>
<rect x="314.0" y="68.0" width="238.0" height="26.0" rx="4" fill="#F01818"/><clipPath id="c0"><rect x="314.0" y="68.0" width="238.0" height="26.0" rx="4"/></clipPath><g clip-path="url(#c0)"><rect x="314.0" y="68.0" width="238.0" height="8.0" rx="0" fill="#FF4A4A"/></g><rect x="314.0" y="68.0" width="238.0" height="26.0" rx="4" fill="none" stroke="#15151b" stroke-width="5" stroke-linejoin="round"/><rect x="408.0" y="52.0" width="52.0" height="30.0" rx="4" fill="#FFC800"/><rect x="408.0" y="52.0" width="52.0" height="30.0" rx="4" fill="none" stroke="#15151b" stroke-width="5" stroke-linejoin="round"/><rect x="424.0" y="88.0" width="16.0" height="76.0" rx="2" fill="#3A3E4A"/><rect x="424.0" y="88.0" width="16.0" height="76.0" rx="2" fill="none" stroke="#15151b" stroke-width="5" stroke-linejoin="round"/><rect x="275.0" y="830.0" width="149.0" height="86.0" rx="0" fill="#FF5A00"/><clipPath id="c3"><rect x="275.0" y="830.0" width="149.0" height="86.0" rx="0"/></clipPath><g clip-path="url(#c3)"><rect x="300.0" y="850.0" width="45.0" height="40.0" rx="3" fill="#C82A10"/></g><rect x="275.0" y="830.0" width="149.0" height="86.0" rx="0" fill="none" stroke="#15151b" stroke-width="5" stroke-linejoin="round"/><rect x="270.0" y="908.0" width="156.0" height="68.0" rx="4" fill="#4A1A10"/><rect x="270.0" y="908.0" width="156.0" height="68.0" rx="4" fill="none" stroke="#15151b" stroke-width="5" stroke-linejoin="round"/><rect x="436.0" y="830.0" width="149.0" height="86.0" rx="0" fill="#FF5A00"/><clipPath id="c5"><rect x="436.0" y="830.0" width="149.0" height="86.0" rx="0"/></clipPath><g clip-path="url(#c5)"><rect x="515.0" y="850.0" width="45.0" height="40.0" rx="3" fill="#C82A10"/></g><rect x="436.0" y="830.0" width="149.0" height="86.0" rx="0" fill="none" stroke="#15151b" stroke-width="5" stroke-linejoin="round"/><rect x="434.0" y="908.0" width="156.0" height="68.0" rx="4" fill="#4A1A10"/><rect x="434.0" y="908.0" width="156.0" height="68.0" rx="4" fill="none" stroke="#15151b" stroke-width="5" stroke-linejoin="round"/><rect x="262.0" y="546.0" width="336.0" height="296.0" rx="4" fill="#2A2A34"/><rect x="262.0" y="546.0" width="336.0" height="296.0" rx="4" fill="none" stroke="#15151b" stroke-width="5" stroke-linejoin="round"/><rect x="292.0" y="576.0" width="276.0" height="266.0" rx="3" fill="#FF5A00"/><clipPath id="c8"><rect x="292.0" y="576.0" width="276.0" height="266.0" rx="3"/></clipPath><g clip-path="url(#c8)"><rect x="546.0" y="570.0" width="28.0" height="276.0" rx="0" fill="#E04A00"/><rect x="478.0" y="690.0" width="52.0" height="42.0" rx="3" fill="#C82A10"/><rect x="318.0" y="780.0" width="48.0" height="42.0" rx="3" fill="#C82A10"/><rect x="512.0" y="796.0" width="48.0" height="40.0" rx="3" fill="#C82A10"/></g><rect x="292.0" y="576.0" width="276.0" height="266.0" rx="3" fill="none" stroke="#15151b" stroke-width="5" stroke-linejoin="round"/><rect x="252.0" y="736.0" width="356.0" height="110.0" rx="4" fill="#FF5A00"/><clipPath id="c9"><rect x="252.0" y="736.0" width="356.0" height="110.0" rx="4"/></clipPath><g clip-path="url(#c9)"><rect x="245.0" y="736.0" width="370.0" height="14.0" rx="0" fill="#FF7A2A"/><rect x="318.0" y="780.0" width="48.0" height="42.0" rx="3" fill="#C82A10"/><rect x="512.0" y="796.0" width="48.0" height="40.0" rx="3" fill="#C82A10"/></g><rect x="252.0" y="736.0" width="356.0" height="110.0" rx="4" fill="none" stroke="#15151b" stroke-width="5" stroke-linejoin="round"/><rect x="340.0" y="556.0" width="24.0" height="84.0" rx="2" fill="#FFE000"/><rect x="340.0" y="556.0" width="24.0" height="84.0" rx="2" fill="none" stroke="#15151b" stroke-width="3" stroke-linejoin="round"/><rect x="330.0" y="596.0" width="26.0" height="26.0" rx="2" fill="#9098A8"/><rect x="330.0" y="596.0" width="26.0" height="26.0" rx="2" fill="none" stroke="#15151b" stroke-width="2" stroke-linejoin="round"/><rect x="520.0" y="596.0" width="26.0" height="26.0" rx="2" fill="#9098A8"/><rect x="520.0" y="596.0" width="26.0" height="26.0" rx="2" fill="none" stroke="#15151b" stroke-width="2" stroke-linejoin="round"/><polygon points="482.0,660.0 463.3,673.8 466.8,696.8 443.8,693.3 430.0,712.0 416.2,693.3 393.2,696.8 396.7,673.8 378.0,660.0 396.7,646.2 393.2,623.2 416.2,626.7 430.0,608.0 443.8,626.7 466.8,623.2 463.3,646.2" fill="#8A90A0"/><clipPath id="c13"><polygon points="482.0,660.0 463.3,673.8 466.8,696.8 443.8,693.3 430.0,712.0 416.2,693.3 393.2,696.8 396.7,673.8 378.0,660.0 396.7,646.2 393.2,623.2 416.2,626.7 430.0,608.0 443.8,626.7 466.8,623.2 463.3,646.2"/></clipPath><g clip-path="url(#c13)"><rect x="416.0" y="646.0" width="28.0" height="28.0" rx="0" fill="#2A2E3A"/></g><polygon points="482.0,660.0 463.3,673.8 466.8,696.8 443.8,693.3 430.0,712.0 416.2,693.3 393.2,696.8 396.7,673.8 378.0,660.0 396.7,646.2 393.2,623.2 416.2,626.7 430.0,608.0 443.8,626.7 466.8,623.2 463.3,646.2" fill="none" stroke="#15151b" stroke-width="4" stroke-linejoin="round"/><rect x="122.0" y="510.0" width="144.0" height="208.0" rx="5" fill="#2A2E3A"/><clipPath id="c14"><rect x="122.0" y="510.0" width="144.0" height="208.0" rx="5"/></clipPath><g clip-path="url(#c14)"><rect x="115.0" y="510.0" width="157.0" height="20.0" rx="0" fill="#3E4454"/><rect x="245.0" y="505.0" width="27.0" height="217.0" rx="0" fill="#20242E"/></g><rect x="122.0" y="510.0" width="144.0" height="208.0" rx="5" fill="none" stroke="#15151b" stroke-width="5" stroke-linejoin="round"/><rect x="122.0" y="704.0" width="144.0" height="96.0" rx="5" fill="#6A6E7E"/><clipPath id="c15"><rect x="122.0" y="704.0" width="144.0" height="96.0" rx="5"/></clipPath><g clip-path="url(#c15)"><rect x="115.0" y="704.0" width="157.0" height="14.0" rx="0" fill="#80849A"/></g><rect x="122.0" y="704.0" width="144.0" height="96.0" rx="5" fill="none" stroke="#15151b" stroke-width="5" stroke-linejoin="round"/><rect x="594.0" y="510.0" width="144.0" height="208.0" rx="5" fill="#2A2E3A"/><clipPath id="c16"><rect x="594.0" y="510.0" width="144.0" height="208.0" rx="5"/></clipPath><g clip-path="url(#c16)"><rect x="588.0" y="510.0" width="157.0" height="20.0" rx="0" fill="#3E4454"/><rect x="588.0" y="505.0" width="27.0" height="217.0" rx="0" fill="#20242E"/></g><rect x="594.0" y="510.0" width="144.0" height="208.0" rx="5" fill="none" stroke="#15151b" stroke-width="5" stroke-linejoin="round"/><rect x="594.0" y="704.0" width="144.0" height="96.0" rx="5" fill="#6A6E7E"/><clipPath id="c17"><rect x="594.0" y="704.0" width="144.0" height="96.0" rx="5"/></clipPath><g clip-path="url(#c17)"><rect x="588.0" y="704.0" width="157.0" height="14.0" rx="0" fill="#80849A"/></g><rect x="594.0" y="704.0" width="144.0" height="96.0" rx="5" fill="none" stroke="#15151b" stroke-width="5" stroke-linejoin="round"/><rect x="-29.0" y="-240.1" width="58.0" height="240.1" rx="4" transform="translate(122 800) rotate(1.9)" fill="#A8ACBE"/><clipPath id="c18"><rect x="-29.0" y="-240.1" width="58.0" height="240.1" rx="4" transform="translate(122 800) rotate(1.9)"/></clipPath><g clip-path="url(#c18)"><rect x="60.0" y="520.0" width="50.0" height="300.0" rx="0" fill="#C8CCDA"/></g><rect x="-29.0" y="-240.1" width="58.0" height="240.1" rx="4" transform="translate(122 800) rotate(1.9)" fill="none" stroke="#15151b" stroke-width="5" stroke-linejoin="round"/><rect x="-45.0" y="-37.0" width="90.0" height="74.0" rx="4" transform="translate(118 578) rotate(0)" fill="#BCC0CE"/><clipPath id="c19"><rect x="-45.0" y="-37.0" width="90.0" height="74.0" rx="4" transform="translate(118 578) rotate(0)"/></clipPath><g clip-path="url(#c19)"><rect x="-50.0" y="-42.0" width="100.0" height="25.7" rx="0" transform="translate(118 578) rotate(0)" fill="#D7D9E2"/><rect x="16.2" y="-16.3" width="33.8" height="58.3" rx="0" transform="translate(118 578) rotate(0)" fill="#969AA5"/></g><rect x="-45.0" y="-37.0" width="90.0" height="74.0" rx="4" transform="translate(118 578) rotate(0)" fill="none" stroke="#15151b" stroke-width="5" stroke-linejoin="round"/><rect x="-42.0" y="-35.0" width="84.0" height="70.0" rx="4" transform="translate(106 758) rotate(0)" fill="#BCC0CE"/><clipPath id="c20"><rect x="-42.0" y="-35.0" width="84.0" height="70.0" rx="4" transform="translate(106 758) rotate(0)"/></clipPath><g clip-path="url(#c20)"><rect x="-47.0" y="-40.0" width="94.0" height="24.6" rx="0" transform="translate(106 758) rotate(0)" fill="#D7D9E2"/><rect x="15.1" y="-15.4" width="31.9" height="55.4" rx="0" transform="translate(106 758) rotate(0)" fill="#969AA5"/></g><rect x="-42.0" y="-35.0" width="84.0" height="70.0" rx="4" transform="translate(106 758) rotate(0)" fill="none" stroke="#15151b" stroke-width="5" stroke-linejoin="round"/><rect x="268.0" y="202.0" width="324.0" height="350.0" rx="5" fill="#FCD8B4"/><clipPath id="c21"><rect x="268.0" y="202.0" width="324.0" height="350.0" rx="5"/></clipPath><g clip-path="url(#c21)"><rect x="570.0" y="195.0" width="28.0" height="361.0" rx="0" fill="#F0C49C"/></g><rect x="268.0" y="202.0" width="324.0" height="350.0" rx="5" fill="none" stroke="#15151b" stroke-width="5" stroke-linejoin="round"/><polygon points="262.0,170.0 330.0,170.0 370.0,126.0 410.0,164.0 452.0,164.0 490.0,126.0 526.0,170.0 598.0,170.0 598.0,230.0 262.0,230.0" fill="#8A2A08"/><clipPath id="c22"><polygon points="262.0,170.0 330.0,170.0 370.0,126.0 410.0,164.0 452.0,164.0 490.0,126.0 526.0,170.0 598.0,170.0 598.0,230.0 262.0,230.0"/></clipPath><g clip-path="url(#c22)"><rect x="255.0" y="170.0" width="350.0" height="12.0" rx="0" fill="#A43A12"/></g><polygon points="262.0,170.0 330.0,170.0 370.0,126.0 410.0,164.0 452.0,164.0 490.0,126.0 526.0,170.0 598.0,170.0 598.0,230.0 262.0,230.0" fill="none" stroke="#15151b" stroke-width="5" stroke-linejoin="round"/><rect x="254.0" y="256.0" width="352.0" height="34.0" rx="3" fill="#1E2230"/><rect x="254.0" y="256.0" width="352.0" height="34.0" rx="3" fill="none" stroke="#15151b" stroke-width="5" stroke-linejoin="round"/><circle cx="360" cy="272" r="58" fill="#1E2230"/><circle cx="360" cy="272" r="42" fill="#10C850"/><clipPath id="c25"><circle cx="360" cy="272" r="42"/></clipPath><g clip-path="url(#c25)"><circle cx="350" cy="262" r="20" fill="#40E878"/></g><circle cx="500" cy="272" r="58" fill="#1E2230"/><circle cx="500" cy="272" r="42" fill="#10C850"/><clipPath id="c27"><circle cx="500" cy="272" r="42"/></clipPath><g clip-path="url(#c27)"><circle cx="490" cy="262" r="20" fill="#40E878"/></g><polygon points="330.0,336.0 396.0,330.0 396.0,348.0 330.0,354.0" fill="#6A1A08"/><polygon points="530.0,336.0 464.0,330.0 464.0,348.0 530.0,354.0" fill="#6A1A08"/><rect x="334.0" y="356.0" width="52.0" height="80.0" rx="3" fill="#05051A"/><clipPath id="c30"><rect x="334.0" y="356.0" width="52.0" height="80.0" rx="3"/></clipPath><g clip-path="url(#c30)"><rect x="342.0" y="370.0" width="14.0" height="24.0" rx="2" fill="#FFFFFF"/></g><rect x="474.0" y="356.0" width="52.0" height="80.0" rx="3" fill="#05051A"/><clipPath id="c31"><rect x="474.0" y="356.0" width="52.0" height="80.0" rx="3"/></clipPath><g clip-path="url(#c31)"><rect x="482.0" y="370.0" width="14.0" height="24.0" rx="2" fill="#FFFFFF"/></g><polygon points="378.0,474.0 470.0,466.0 470.0,488.0 378.0,496.0" fill="#7A0A08"/><rect x="-32.0" y="-12.0" width="64.0" height="24.0" rx="2" transform="translate(544 452) rotate(14)" fill="#101014"/>
</g>
</svg>
