<svg xmlns="http://www.w3.org/2000/svg" viewBox="0 0 832 1164" width="832" height="1164">
<g transform="translate(-177.7 -66.8) scale(1.18)">
<g fill="#15151b" stroke="#15151b" stroke-width="24" stroke-linejoin="round"><rect x="382.0" y="88.0" width="280.0" height="40.0" rx="20"/><rect x="356.0" y="978.0" width="149.0" height="38.0" rx="4"/><rect x="539.0" y="978.0" width="149.0" height="38.0" rx="4"/><rect x="342.0" y="852.0" width="360.0" height="108.0" rx="3"/><rect x="336.0" y="948.0" width="372.0" height="38.0" rx="4"/><rect x="352.0" y="590.0" width="340.0" height="270.0" rx="4"/><rect x="344.0" y="806.0" width="356.0" height="50.0" rx="3"/><rect x="222.0" y="545.0" width="130.0" height="325.0" rx="6"/><rect x="692.0" y="545.0" width="130.0" height="325.0" rx="6"/><rect x="-65.0" y="-59.0" width="130.0" height="118.0" rx="4" transform="translate(262 780) rotate(-18)"/><rect x="322.0" y="258.0" width="42.0" height="106.0" rx="5"/><rect x="360.0" y="288.0" width="324.0" height="324.0" rx="6"/><polygon points="340.0,146.0 704.0,146.0 704.0,306.0 672.0,306.0 672.0,288.0 610.0,288.0 610.0,300.0 560.0,300.0 560.0,284.0 500.0,284.0 500.0,298.0 432.0,298.0 432.0,318.0 400.0,318.0 400.0,296.0 360.0,296.0 360.0,306.0 340.0,306.0"/><rect x="379.0" y="526.0" width="286.0" height="136.0" rx="8"/></g>
<rect x="382.0" y="88.0" width="280.0" height="40.0" rx="20" fill="#FFF200"/><clipPath id="c0"><rect x="382.0" y="88.0" width="280.0" height="40.0" rx="20"/></clipPath><g clip-path="url(#c0)"><rect x="382.0" y="88.0" width="280.0" height="13.0" rx="0" fill="#FFFA9A"/></g><rect x="382.0" y="88.0" width="280.0" height="40.0" rx="20" fill="none" stroke="#15151b" stroke-width="5" stroke-linejoin="round"/><rect x="356.0" y="978.0" width="149.0" height="38.0" rx="4" fill="#4A8A7A"/><rect x="356.0" y="978.0" width="149.0" height="38.0" rx="4" fill="none" stroke="#15151b" stroke-width="5" stroke-linejoin="round"/><rect x="539.0" y="978.0" width="149.0" height="38.0" rx="4" fill="#4A8A7A"/><rect x="539.0" y="978.0" width="149.0" height="38.0" rx="4" fill="none" stroke="#15151b" stroke-width="5" stroke-linejoin="round"/><rect x="342.0" y="852.0" width="360.0" height="108.0" rx="3" fill="#E6EAF7"/><clipPath id="c3"><rect x="342.0" y="852.0" width="360.0" height="108.0" rx="3"/></clipPath><g clip-path="url(#c3)"><rect x="678.0" y="845.0" width="31.0" height="120.0" rx="0" fill="#CDD3EA"/></g><rect x="342.0" y="852.0" width="360.0" height="108.0" rx="3" fill="none" stroke="#15151b" stroke-width="5" stroke-linejoin="round"/><rect x="336.0" y="948.0" width="372.0" height="38.0" rx="4" fill="#1E90F0"/><clipPath id="c4"><rect x="336.0" y="948.0" width="372.0" height="38.0" rx="4"/></clipPath><g clip-path="url(#c4)"><rect x="330.0" y="948.0" width="384.0" height="10.0" rx="0" fill="#56B0F8"/><rect x="330.0" y="978.0" width="384.0" height="12.0" rx="0" fill="#F8C800"/></g><rect x="336.0" y="948.0" width="372.0" height="38.0" rx="4" fill="none" stroke="#15151b" stroke-width="5" stroke-linejoin="round"/><rect x="352.0" y="590.0" width="340.0" height="270.0" rx="4" fill="#E6EAF7"/><clipPath id="c5"><rect x="352.0" y="590.0" width="340.0" height="270.0" rx="4"/></clipPath><g clip-path="url(#c5)"><rect x="668.0" y="585.0" width="31.0" height="280.0" rx="0" fill="#CDD3EA"/><rect x="405.0" y="640.0" width="57.0" height="230.0" rx="0" fill="#1E90F0"/><rect x="582.0" y="640.0" width="57.0" height="230.0" rx="0" fill="#1E90F0"/></g><rect x="352.0" y="590.0" width="340.0" height="270.0" rx="4" fill="none" stroke="#15151b" stroke-width="5" stroke-linejoin="round"/><rect x="344.0" y="806.0" width="356.0" height="50.0" rx="3" fill="#D8A800"/><clipPath id="c6"><rect x="344.0" y="806.0" width="356.0" height="50.0" rx="3"/></clipPath><g clip-path="url(#c6)"><rect x="340.0" y="806.0" width="364.0" height="10.0" rx="0" fill="#F0C630"/></g><rect x="344.0" y="806.0" width="356.0" height="50.0" rx="3" fill="none" stroke="#15151b" stroke-width="5" stroke-linejoin="round"/><polygon points="522.0,799.0 554.0,831.0 522.0,863.0 490.0,831.0" fill="#FFE800"/><clipPath id="c7"><polygon points="522.0,799.0 554.0,831.0 522.0,863.0 490.0,831.0"/></clipPath><g clip-path="url(#c7)"><polygon points="522.0,799.0 522.0,831.0 490.0,831.0" fill="#FFF273"/><polygon points="522.0,831.0 554.0,831.0 522.0,863.0" fill="#C7B500"/></g><polygon points="522.0,799.0 554.0,831.0 522.0,863.0 490.0,831.0" fill="none" stroke="#15151b" stroke-width="5" stroke-linejoin="round"/><rect x="222.0" y="545.0" width="130.0" height="325.0" rx="6" fill="#E6EAF7"/><clipPath id="c8"><rect x="222.0" y="545.0" width="130.0" height="325.0" rx="6"/></clipPath><g clip-path="url(#c8)"><rect x="215.0" y="545.0" width="145.0" height="23.0" rx="0" fill="#FFFFFF"/><rect x="330.0" y="540.0" width="30.0" height="335.0" rx="0" fill="#CDD3EA"/><rect x="215.0" y="764.0" width="145.0" height="28.0" rx="0" fill="#1E90F0"/></g><rect x="222.0" y="545.0" width="130.0" height="325.0" rx="6" fill="none" stroke="#15151b" stroke-width="5" stroke-linejoin="round"/><rect x="692.0" y="545.0" width="130.0" height="325.0" rx="6" fill="#E6EAF7"/><clipPath id="c9"><rect x="692.0" y="545.0" width="130.0" height="325.0" rx="6"/></clipPath><g clip-path="url(#c9)"><rect x="684.0" y="545.0" width="145.0" height="23.0" rx="0" fill="#FFFFFF"/><rect x="684.0" y="540.0" width="30.0" height="335.0" rx="0" fill="#CDD3EA"/><rect x="684.0" y="764.0" width="145.0" height="28.0" rx="0" fill="#1E90F0"/></g><rect x="692.0" y="545.0" width="130.0" height="325.0" rx="6" fill="none" stroke="#15151b" stroke-width="5" stroke-linejoin="round"/><rect x="-65.0" y="-59.0" width="130.0" height="118.0" rx="4" transform="translate(262 780) rotate(-18)" fill="#F8F8FC"/><clipPath id="c10"><rect x="-65.0" y="-59.0" width="130.0" height="118.0" rx="4" transform="translate(262 780) rotate(-18)"/></clipPath><g clip-path="url(#c10)"><rect x="-70.0" y="-64.0" width="140.0" height="38.0" rx="0" transform="translate(262 780) rotate(-18)" fill="#FBFBFD"/><rect x="23.4" y="-26.0" width="46.6" height="90.0" rx="0" transform="translate(262 780) rotate(-18)" fill="#C6C6CA"/></g><rect x="-65.0" y="-59.0" width="130.0" height="118.0" rx="4" transform="translate(262 780) rotate(-18)" fill="none" stroke="#15151b" stroke-width="5" stroke-linejoin="round"/><rect x="322.0" y="258.0" width="42.0" height="106.0" rx="5" fill="#F4F5FB"/><clipPath id="c11"><rect x="322.0" y="258.0" width="42.0" height="106.0" rx="5"/></clipPath><g clip-path="url(#c11)"><rect x="345.0" y="250.0" width="25.0" height="120.0" rx="0" fill="#DDE1EF"/></g><rect x="322.0" y="258.0" width="42.0" height="106.0" rx="5" fill="none" stroke="#15151b" stroke-width="5" stroke-linejoin="round"/><rect x="360.0" y="288.0" width="324.0" height="324.0" rx="6" fill="#FCEBE0"/><clipPath id="c12"><rect x="360.0" y="288.0" width="324.0" height="324.0" rx="6"/></clipPath><g clip-path="url(#c12)"><rect x="660.0" y="280.0" width="32.0" height="340.0" rx="0" fill="#F0D8CA"/></g><rect x="360.0" y="288.0" width="324.0" height="324.0" rx="6" fill="none" stroke="#15151b" stroke-width="5" stroke-linejoin="round"/><polygon points="340.0,146.0 704.0,146.0 704.0,306.0 672.0,306.0 672.0,288.0 610.0,288.0 610.0,300.0 560.0,300.0 560.0,284.0 500.0,284.0 500.0,298.0 432.0,298.0 432.0,318.0 400.0,318.0 400.0,296.0 360.0,296.0 360.0,306.0 340.0,306.0" fill="#F4F5FB"/><clipPath id="c13"><polygon points="340.0,146.0 704.0,146.0 704.0,306.0 672.0,306.0 672.0,288.0 610.0,288.0 610.0,300.0 560.0,300.0 560.0,284.0 500.0,284.0 500.0,298.0 432.0,298.0 432.0,318.0 400.0,318.0 400.0,296.0 360.0,296.0 360.0,306.0 340.0,306.0"/></clipPath><g clip-path="url(#c13)"><rect x="330.0" y="146.0" width="384.0" height="20.0" rx="0" fill="#FFFFFF"/><rect x="672.0" y="140.0" width="42.0" height="180.0" rx="0" fill="#DDE1EF"/><rect x="412.0" y="200.0" width="20.0" height="120.0" rx="0" fill="#DDE1EF"/><rect x="545.0" y="166.0" width="53.0" height="64.0" rx="4" fill="#FFFFFF"/><rect x="500.0" y="236.0" width="20.0" height="64.0" rx="0" fill="#DDE1EF"/></g><polygon points="340.0,146.0 704.0,146.0 704.0,306.0 672.0,306.0 672.0,288.0 610.0,288.0 610.0,300.0 560.0,300.0 560.0,284.0 500.0,284.0 500.0,298.0 432.0,298.0 432.0,318.0 400.0,318.0 400.0,296.0 360.0,296.0 360.0,306.0 340.0,306.0" fill="none" stroke="#15151b" stroke-width="5" stroke-linejoin="round"/><polygon points="410.0,380.0 496.0,370.0 496.0,394.0 410.0,404.0" fill="#F4F5FB"/><polygon points="410.0,380.0 496.0,370.0 496.0,394.0 410.0,404.0" fill="none" stroke="#15151b" stroke-width="4" stroke-linejoin="round"/><polygon points="634.0,380.0 548.0,370.0 548.0,394.0 634.0,404.0" fill="#F4F5FB"/><polygon points="634.0,380.0 548.0,370.0 548.0,394.0 634.0,404.0" fill="none" stroke="#15151b" stroke-width="4" stroke-linejoin="round"/><rect x="427.0" y="412.0" width="51.0" height="60.0" rx="3" fill="#0A5AE8"/><clipPath id="c16"><rect x="427.0" y="412.0" width="51.0" height="60.0" rx="3"/></clipPath><g clip-path="url(#c16)"><rect x="450.0" y="416.0" width="12.0" height="30.0" rx="2" fill="#FFFFFF"/></g><rect x="566.0" y="412.0" width="51.0" height="60.0" rx="3" fill="#0A5AE8"/><clipPath id="c17"><rect x="566.0" y="412.0" width="51.0" height="60.0" rx="3"/></clipPath><g clip-path="url(#c17)"><rect x="582.0" y="416.0" width="12.0" height="30.0" rx="2" fill="#FFFFFF"/></g><rect x="388.0" y="486.0" width="44.0" height="22.0" rx="4" fill="#F8C0D0"/><rect x="612.0" y="486.0" width="44.0" height="22.0" rx="4" fill="#F8C0D0"/><rect x="379.0" y="526.0" width="286.0" height="136.0" rx="8" fill="#FBF3EE"/><clipPath id="c20"><rect x="379.0" y="526.0" width="286.0" height="136.0" rx="8"/></clipPath><g clip-path="url(#c20)"><rect x="638.0" y="520.0" width="34.0" height="150.0" rx="0" fill="#ECE0D8"/></g><rect x="379.0" y="526.0" width="286.0" height="136.0" rx="8" fill="none" stroke="#15151b" stroke-width="5" stroke-linejoin="round"/><rect x="425.0" y="494.0" width="194.0" height="42.0" rx="8" fill="#FFFBF8"/><clipPath id="c21"><rect x="425.0" y="494.0" width="194.0" height="42.0" rx="8"/></clipPath><g clip-path="url(#c21)"><rect x="425.0" y="526.0" width="194.0" height="14.0" rx="0" fill="#F2E8E2"/></g>
</g>
</svg>
